<svg height="1022" width="2500" xmlns="http://www.w3.org/2000/svg" viewBox="8.242295734817162e-13 -0.36 2510.175999999999 1027.543"><path d="M601 183l1.642 1.338C617.088 196.116 630.582 209.254 642 224c.91 1.102 1.825 2.2 2.742 3.297 31.115 37.454 50.653 83.444 60.008 130.953l.603 3.043c3.239 17.27 4.022 34.234 3.96 51.77l-.007 3.285c-.05 15.756-.412 31.124-3.306 46.652l-.554 3.185C700.85 492.143 692.842 518.383 681 542l-1.315 2.659C670.433 563.256 660.094 580.845 647 597c-.726.918-1.451 1.836-2.2 2.781-13.161 16.447-28.09 32.37-44.8 45.219l-3.93 3.082c-52.475 40.929-116.057 63.12-182.633 63.168l-2.6.002c-79.841-.1-154.387-32.854-210.712-88.877C193.651 615.86 187.553 609.323 182 602a2261.25 2261.25 0 0 0-3.031-3.844C146.429 556.69 125.107 507.311 118 455l-.535-3.894c-1.58-12.262-1.865-24.441-1.84-36.793l.002-3.111c.043-17.709 1.113-34.767 4.373-52.202l.617-3.33C129.94 307.362 151.637 261.843 183 224l1.482-1.794c10.856-13.05 22.525-25.668 35.916-36.155a135.889 135.889 0 0 0 5.204-4.32C300.598 116.345 415.122 99.082 601 183z" fill="#011548"/><path d="M113 502c2 1 2 1 2.727 2.708l.683 2.245.796 2.533.856 2.764C131.05 552.494 152.716 589.61 181 621l1.556 1.727C190.924 631.97 199.438 640.97 209 649l1.592 1.347C227.844 664.882 246.126 677.328 266 688l2.599 1.41C300.015 706.292 334.653 717.276 370 722l3.841.53c12.607 1.636 25.146 1.87 37.846 1.845l3.259-.003c84.97-.227 161.062-35.585 221.241-94.372 4.134-4.18 7.88-8.578 11.543-13.172 2.304-2.87 4.688-5.658 7.082-8.453 9.438-11.328 17.715-23.548 25.025-36.344.806-1.407 1.62-2.81 2.439-4.21C693.893 547.936 702.348 526.675 710 505c8.006 6.74 15.351 13.975 22.152 21.934 3.016 3.372 6.267 6.502 9.508 9.656 2.03 2.091 3.655 4.172 5.34 6.535 1.566 1.806 2.448 2.769 4.826 3.226 8.984-.19 17.881-1.314 26.799-2.351 2.49-.288 4.979-.575 7.47-.856 1.538-.174 3.076-.351 4.614-.534 4.795-.543 9.465-.686 14.291-.61-1.453 7.705-3.987 14.722-6.875 22l-1.464 3.704C791.709 580.094 786.007 592.09 780 604l-1.194 2.391C762.474 638.947 740.5 668.188 716 695l-2.723 3.004c-7.056 7.77-14.196 15.32-22.168 22.164-2.285 1.985-4.506 4.032-6.734 6.082-5.613 5.057-11.502 9.707-17.492 14.304a887.836 887.836 0 0 0-3.75 2.896c-16.664 12.926-34.362 24.027-52.794 34.251a776.36 776.36 0 0 0-6.116 3.44c-64.972 35.957-142.76 50.509-216.473 46.109l-2.197-.13c-55.747-3.393-110.972-18.277-160.55-44.084a591.209 591.209 0 0 0-6.433-3.263C200.78 770.744 183.983 759.928 168 748l-1.633-1.216C154.375 737.814 143.054 728.098 132 718l-2.98-2.664C110.273 698.47 93.992 679.224 79 659l-1.499-2.01C57.217 629.64 20 578.635 20 543c10.473-.256 20.835.811 31.258 1.718 4.838.418 9.676.798 14.522 1.121 2.105.153 4.2.353 6.3.556 6.38.532 6.38.532 12.055-1.905 1.888-2.241 3.3-4.502 4.74-7.052 1.145-1.822 2.293-3.642 3.441-5.461l1.782-2.93c3.362-5.387 7.06-10.543 10.715-15.734l4.082-5.887c2.98-4.302 2.98-4.302 4.105-5.426z" fill="#bc8238"/><path d="M412-.313l3.818.006C434.076-.262 451.937.155 470 3l3.518.52C545.774 14.314 614.198 43.955 671 90l2.844 2.258c6.218 4.985 12.092 10.272 17.906 15.715 2.061 1.93 4.14 3.834 6.25 5.71 18.063 16.166 33.594 34.882 48 54.317l1.499 2.01c14.056 18.953 25.722 39.522 36.284 60.592a166.926 166.926 0 0 0 2.47 4.683c2.853 5.29 2.853 5.29 1.747 9.715l-62-8c-6.166 8.421-6.166 8.421-12.035 17.008l-2.014 3.05a8861.677 8861.677 0 0 0-4.039 6.157c-4.058 6.144-8.286 12.054-12.912 17.785-2.557-2.3-3.971-4.585-5.496-7.656l-1.424-2.82-1.518-3.024C674.78 244.537 660.122 224.26 643 205l-1.447-1.639c-11.515-12.979-24.082-24.672-37.927-35.13a440.05 440.05 0 0 1-4.571-3.524c-52.967-40.771-119.51-62.283-186.118-62.02l-2.987.007c-15.504.054-30.647.61-45.95 3.306l-3.46.602c-58.173 10.438-113.369 36.055-156.626 76.695a237.82 237.82 0 0 1-6.809 6.058c-4.045 3.527-7.762 7.282-11.418 11.207l-1.966 2.108c-5.469 5.932-10.52 12.098-15.367 18.544a392.867 392.867 0 0 1-4.276 5.513C150.988 243.54 141.03 262.262 131 281c-3.433-3.28-6.25-6.558-8.89-10.5l-2.14-3.172-2.22-3.328a5895.137 5895.137 0 0 0-3.417-5.081 5842.82 5842.82 0 0 1-3.319-4.939c-3.146-4.655-6.384-9.243-9.643-13.82C100 238 100 238 100 236l-1.738.377c-6.981 1.46-13.977 2.455-21.051 3.35l-3.59.462a8513 8513 0 0 1-11.246 1.436l-7.668.984c-6.235.8-12.47 1.598-18.707 2.391.533-3.87 1.274-7.057 3.012-10.555l1.276-2.576 1.4-2.744 1.46-2.888C51.133 210.666 59.889 195.299 70 181l1.138-1.627a452.554 452.554 0 0 1 39.474-48.867 473.652 473.652 0 0 0 4.243-4.678c4.545-5.05 9.112-9.888 14.329-14.262 1.815-1.565 3.465-3.215 5.128-4.941 4.065-4.12 8.534-7.683 13.047-11.296a396.509 396.509 0 0 0 5.239-4.337C211.655 41.733 286.852 10.875 363 2l2.158-.261C380.77-.11 396.29-.36 412-.313zM960.519 191.853l3.402-.022 3.72-.008 3.928-.02c4.299-.02 8.597-.031 12.896-.041l4.453-.013c6.98-.019 13.96-.033 20.94-.041 8.032-.01 16.063-.036 24.094-.077 6.223-.03 12.445-.045 18.668-.048 3.709-.002 7.418-.011 11.126-.036 4.15-.028 8.3-.024 12.45-.017l3.664-.039c14.488.088 28.34 4.754 39.015 14.759 6.2 6.542 11.233 13.963 16.404 21.324 2.85 4.018 5.787 7.97 8.721 11.926 4.539 6.14 9.04 12.304 13.5 18.5 6.18 8.584 12.448 17.102 18.734 25.609 3.51 4.751 7.01 9.508 10.514 14.264 2.926 3.972 5.855 7.944 8.787 11.912a2597.359 2597.359 0 0 1 18.894 25.898A927.35 927.35 0 0 0 1228 354c3.919-3.59 6.82-7.75 9.875-12.062 1.165-1.629 2.33-3.256 3.496-4.883l1.816-2.536c2.886-4.009 5.816-7.984 8.75-11.956l1.758-2.381c2.357-3.194 4.716-6.386 7.076-9.578 6.284-8.505 12.55-17.022 18.729-25.604a2388.205 2388.205 0 0 1 18.962-25.918c1.34-1.813 2.671-3.632 3.999-5.453 7.805-10.61 16.048-21.536 26.539-29.629l3.086-2.473c23.93-18.696 53.022-29.608 83.476-29.704l2.792-.02c3.025-.02 6.05-.031 9.076-.041l3.15-.013c5.496-.02 10.993-.035 16.49-.044a3358.98 3358.98 0 0 0 16.973-.085c4.37-.027 8.74-.035 13.11-.038 2.085-.005 4.17-.017 6.255-.035a816.36 816.36 0 0 1 8.771-.017l2.573-.039c7.972.069 15.13 2.31 21.123 7.697 6.314 7.075 7.903 13.986 7.55 23.41-1.24 9.915-8.214 17.386-14.12 25.07-3.316 4.32-6.507 8.72-9.68 13.145-7.377 10.26-14.885 20.42-22.396 30.583-6.284 8.505-12.55 17.022-18.729 25.604-7.34 10.193-14.805 20.294-22.27 30.396-6.285 8.505-12.55 17.022-18.73 25.604-7.34 10.193-14.805 20.294-22.27 30.396-6.285 8.505-12.55 17.022-18.73 25.604-7.34 10.193-14.805 20.294-22.27 30.396-6.827 9.24-13.618 18.502-20.33 27.826-4.519 6.272-9.098 12.499-13.705 18.708a346.46 346.46 0 0 0-3.183 4.371 113.466 113.466 0 0 1-4.508 5.637c-7.64 9.268-8.93 16.424-8.683 28.202a985.222 985.222 0 0 1-.02 5.017c-.016 4.501.027 9 .082 13.5.046 4.737.032 9.473.024 14.209-.006 8.967.036 17.933.097 26.9.108 16.04.13 32.079.14 48.118.006 5.616.031 11.232.073 16.847.024 3.51.036 7.018.046 10.527.007 1.612.02 3.223.037 4.834.317 28.675-9.468 54.595-29.415 75.37-20.82 21.136-47.533 31.456-77.04 31.82a1408.9 1408.9 0 0 1-18.47-.094c-2.568-.016-5.135-.03-7.703-.042A3726.91 3726.91 0 0 1 1153 791c-.07-10.233-.123-20.466-.155-30.699-.016-4.754-.037-9.507-.071-14.26-.033-4.604-.05-9.208-.059-13.812-.005-1.74-.016-3.48-.032-5.22-.14-15.518 1.228-30.992 5.88-45.884l.759-2.458c5.314-16.387 13.458-30.895 23.678-44.667 1.106-1.514 2.212-3.028 3.316-4.543 2.943-4.023 5.909-8.028 8.881-12.03 2.964-3.99 5.915-7.989 8.865-11.99l1.758-2.382A1853.38 1853.38 0 0 0 1217.5 587c6.181-8.584 12.448-17.102 18.734-25.609 2.926-3.96 5.846-7.926 8.766-11.891 3.509-4.764 7.019-9.527 10.535-14.285 5.695-7.71 11.364-15.437 16.965-23.215 7.34-10.193 14.805-20.294 22.27-30.396 6.285-8.505 12.55-17.022 18.73-25.604 7.34-10.193 14.805-20.294 22.27-30.396 6.285-8.505 12.55-17.022 18.73-25.604 7.34-10.193 14.805-20.294 22.27-30.396 6.285-8.505 12.55-17.022 18.73-25.604 7.34-10.193 14.805-20.294 22.27-30.396 6.285-8.505 12.55-17.022 18.73-25.604 7.356-10.215 14.835-20.338 22.319-30.46l5.431-7.352 1.605-2.168c3.501-4.742 6.944-9.525 10.367-14.323l1.396-1.958L1481 227c-9.468-.093-18.936-.164-28.404-.207-4.398-.021-8.796-.049-13.195-.095-4.26-.044-8.52-.067-12.78-.078-1.61-.007-3.219-.021-4.828-.043-29.619-.387-56.136 10.576-77.73 30.86-6.51 6.73-11.8 14.446-17.244 22.039-2.923 4.056-5.906 8.068-8.882 12.087A1954.087 1954.087 0 0 0 1304.5 310c-6.181 8.584-12.448 17.102-18.734 25.609-2.926 3.96-5.846 7.926-8.766 11.891-3.509 4.764-7.019 9.527-10.535 14.285-5.695 7.71-11.364 15.437-16.965 23.215-6.175 8.575-12.436 17.084-18.716 25.583-1.814 2.457-3.622 4.919-5.429 7.382-2.915 3.974-5.842 7.94-8.777 11.9a861.058 861.058 0 0 0-3 4.082c-13.476 18.45-30.437 30.536-53.086 34.698-17.034 1.733-32.93-.154-48.492-7.645l-2.73-1.234c-15-7.359-24.727-20.551-34.27-33.766l-1.609-2.213a2202.654 2202.654 0 0 1-8.079-11.19c-3.38-4.704-6.809-9.373-10.25-14.034l-1.759-2.385L1048 389c-7.421-10.04-14.812-20.1-22.108-30.233-6.229-8.64-12.562-17.202-18.892-25.767-7.421-10.04-14.812-20.1-22.108-30.233-6.229-8.64-12.562-17.202-18.892-25.767-7.051-9.54-14.092-19.088-21.063-28.687l-1.588-2.177C930.68 228.631 930.68 228.631 932 217c1.548-8.158 4.64-14.838 11.473-19.793 5.857-3.632 10.136-5.324 17.046-5.354zM972 226l1.905 3.36 1.072 1.89c1.211 2.072 2.549 3.999 3.984 5.922l1.656 2.232 1.758 2.346 3.773 5.078 1.94 2.604c2.986 4.011 5.949 8.04 8.912 12.068 3.509 4.764 7.019 9.527 10.535 14.285a2613.348 2613.348 0 0 1 18.573 25.448c6.229 8.64 12.562 17.202 18.892 25.767 7.421 10.04 14.812 20.1 22.108 30.233 5.65 7.836 11.385 15.607 17.126 23.376 2.343 3.172 4.682 6.346 7.02 9.521 1.16 1.574 2.32 3.147 3.483 4.718 3.02 4.088 6.015 8.191 8.974 12.324l1.86 2.576a590.178 590.178 0 0 1 3.46 4.848c4.976 6.869 10.588 12.866 18.531 16.217l2.63 1.144c11.16 4.145 23.25 5.055 34.355.3 13.967-7.16 22.001-18.4 30.832-30.956 2.017-2.863 4.055-5.71 6.094-8.556 1.847-2.579 3.687-5.162 5.527-7.745-1.658-3.66-3.904-6.823-6.25-10.062l-1.315-1.83c-4.304-5.966-8.677-11.88-13.05-17.796A1641.707 1641.707 0 0 1 1174.5 339c-6.18-8.584-12.448-17.102-18.734-25.609-3.51-4.751-7.01-9.508-10.514-14.264-2.926-3.972-5.855-7.944-8.787-11.912-5.695-7.71-11.363-15.437-16.965-23.215a2937.393 2937.393 0 0 0-13.938-19.187l-1.718-2.358c-2.564-3.487-5.162-6.949-7.88-10.318l-1.296-1.623c-5.702-5.177-11.642-4.929-18.906-4.855h-3.401c-3.702.001-7.402.025-11.103.048-2.57.006-5.14.01-7.71.013-6.066.01-12.133.034-18.2.064-6.908.034-13.818.05-20.727.065-14.207.031-28.414.084-42.621.151zm298 347a82.699 82.699 0 0 0-2.703 3.523l-1.701 2.317-1.846 2.535-1.908 2.605a3251.256 3251.256 0 0 0-13.947 19.248c-7.4 10.265-14.936 20.43-22.47 30.596-3.49 4.714-6.96 9.442-10.425 14.176-.545.74-1.09 1.48-1.65 2.243-10.223 13.937-19.044 27.824-23.35 44.757l-.796 2.95c-2.873 12.097-2.54 24.118-2.392 36.488.016 2.195.03 4.391.042 6.587.032 5.325.082 10.65.146 15.975 3.324.046 6.648.073 9.973.098l2.82.04c18.365.1 34.61-6.887 48.207-19.138l1.922-1.676c13.69-12.691 19.835-31.192 21.078-49.324.124-3.906.127-7.806.114-11.714v-3.374c0-3.641-.008-7.282-.016-10.924l-.005-7.62c-.003-5.978-.01-11.956-.021-17.934-.011-6.813-.017-13.625-.022-20.438-.01-13.999-.028-27.997-.05-41.996h-1z" fill="#bc8237"/><path d="M2372 483l2.399.536c22.325 5.09 45.139 14.002 61.601 30.464l1-30c19.062-.63 35.478 2.405 50.375 15.438A259.012 259.012 0 0 1 2492 504l1.926 1.86c12.798 13.28 16.25 31.712 16.194 49.48l.003 3.076c.001 3.389-.004 6.777-.01 10.166l.001 7.304c0 5.234-.003 10.469-.008 15.703-.008 7.568-.011 15.136-.012 22.704-.002 12.28-.01 24.56-.019 36.84-.009 11.926-.016 23.851-.02 35.777v2.229l-.005 11.073c-.01 30.596-.028 61.192-.05 91.788-2.516.019-5.031.032-7.547.043l-2.128.017c-17.677.056-33.935-5.077-47.075-17.31-5.945-6.33-9.987-14.245-14.25-21.75l-2.063 2.02c-30.203 28.966-69.81 42.02-111.324 41.226-38.055-1.322-72.5-16.763-99.613-43.246l-2.535-2.348c-26.025-24.704-43.149-62.702-44.626-98.563-.02-1.36-.033-2.718-.042-4.077l-.022-2.232c-.23-31.147-.23-31.147 3.225-44.78l.618-2.447c3.05-11.66 7.122-22.717 12.382-33.553l.897-1.884c7.466-15.508 18.056-28.898 30.103-41.116l2.723-2.762C2241.235 507.173 2256.15 498.02 2272 491l1.846-.834c29.36-13 67.003-14.419 98.154-7.166zm-109.438 88.094c-17.652 20.02-26.709 45.804-25.437 72.406 1.854 26.507 13.871 51.67 33.953 69.238 21.114 17.769 47.341 26.43 74.922 24.262 22.94-2.665 41.662-11.894 59-27l1.895-1.637c17.529-16.297 28.385-41.634 29.308-65.386.472-26.053-6.964-50.026-24.203-69.977l-1.71-2.113c-15.489-18.724-39.706-29.708-63.552-32.422-32.345-2.954-61.844 9.519-84.175 32.629zM1452 483c2.405.142 4.81.289 7.214.439l2.052.12c18.845 1.194 35.121 11.178 47.921 24.628 13.418 15.893 17.964 34.311 17.955 54.718l.016 5.935c.005 2.116.008 4.233.01 6.35.007 4.427.023 8.854.042 13.28a321562.631 321562.631 0 0 1 .029 6.868c.042 10.297.075 20.593.087 30.89.008 6.96.03 13.918.07 20.877.019 3.675.031 7.35.026 11.024-.005 4.107.02 8.212.048 12.319l-.02 3.633c.183 16.66 7.205 27.421 18.425 39.231 4.917 4.75 10.183 8.34 16.125 11.688l2.39 1.398c9.19 5.021 20.17 7.894 30.61 8.602l2.102.156c22.194.891 41.733-8.444 58.015-22.867 12.053-11.173 24.645-27.575 29.883-43.289.093-2.484.13-4.939.12-7.422l.003-2.31c.001-2.56-.004-5.122-.01-7.683l.001-5.499c0-4.983-.006-9.966-.013-14.949-.006-5.205-.006-10.41-.008-15.615-.003-9.86-.011-19.72-.021-29.58-.011-11.223-.017-22.446-.022-33.67-.01-23.09-.028-46.181-.05-69.272 1.91-.021 3.82-.036 5.73-.049l3.222-.027c4 .1 7.5.817 11.298 2.013l2.16.668c19.594 6.462 36.143 20.113 46.145 38.207 4.655 9.696 6.906 19.23 6.806 29.964l.008 3.11c.004 3.407-.012 6.813-.028 10.22v7.365c.002 5.268-.007 10.537-.024 15.806a8405.56 8405.56 0 0 0-.036 22.852c-.006 12.362-.026 24.724-.055 37.085-.027 12.002-.048 24.004-.061 36.006l-.003 2.245-.011 11.151c-.031 30.795-.086 61.59-.151 92.384h-75l-1-44-12 12c-2.313 1.987-4.48 3.809-6.938 5.562l-1.846 1.33c-29.545 20.57-64.667 29.05-100.216 23.108-23.463-4.435-44.999-15.372-63-31l-2.406-2.074A341.644 341.644 0 0 1 1490 750l-1.446-1.343c-23.925-22.39-36.16-52.063-37.554-84.657-.143-6.067-.07-12.136-.022-18.205l.03-5.355c.026-4.803.058-9.606.093-14.409.034-5.035.063-10.07.092-15.106.056-9.516.117-19.032.18-28.548.072-10.841.138-21.683.203-32.525.135-22.284.277-44.568.424-66.852zM1796 483c17.913-.675 35.19 1.675 52 8l1.999.75c33.003 12.702 55.654 38.168 69.946 69.843 3.793 8.652 7.178 17.483 10.653 26.266l2.761 6.949c2.417 6.08 4.829 12.163 7.239 18.247 2.406 6.071 4.817 12.14 7.228 18.21 2.804 7.06 5.608 14.12 8.41 21.182 7.22 18.198 14.476 36.382 21.764 54.553 2.641-5.75 5.273-11.489 7.602-17.375l1.443-3.63.77-1.95c1.497-3.78 3.004-7.557 4.51-11.334.346-.87.692-1.74 1.05-2.636 3.322-8.331 6.669-16.653 10.02-24.973l.859-2.134a34400.598 34400.598 0 0 1 14.13-35.03 4801.37 4801.37 0 0 0 9.301-23.184 5307.89 5307.89 0 0 1 4.05-10.145c.576-1.447 1.15-2.896 1.72-4.346 3.003-7.645 6.317-15.021 10.135-22.294l1.1-2.104c3.698-6.883 8.278-12.905 13.31-18.865l2.363-2.86c20.369-23.601 51.415-38.737 82.446-41.058 3.735-.14 7.453-.142 11.191-.082a147.46 147.46 0 0 1-6.816 17.66l-1.116 2.455c-1.206 2.651-2.419 5.3-3.63 7.947l-2.565 5.635c-1.32 2.901-2.639 5.802-3.96 8.701a5377.829 5377.829 0 0 0-11.813 26.154 16899.355 16899.355 0 0 1-20.798 46.094A16185.63 16185.63 0 0 0 2086 636a18216.79 18216.79 0 0 1-19.698 43.646 15301.904 15301.904 0 0 0-16.19 35.882 57088.195 57088.195 0 0 1-21.57 47.908 5541.335 5541.335 0 0 1-3.433 7.61l-.992 2.212c-2.873 6.347-5.993 12.494-9.117 18.742h-77c-13.616-28.367-13.616-28.367-18.228-38.641-1.546-3.444-3.105-6.882-4.663-10.32l-.996-2.2c-4.09-9.012-8.258-17.988-12.425-26.964a432745.645 432745.645 0 0 1-6.064-13.065c-4.301-9.266-8.591-18.536-12.874-27.81l-1.134-2.456a5433.697 5433.697 0 0 1-15.96-34.918c-7.248-15.99-14.649-31.91-22.041-47.834A18208.581 18208.581 0 0 1 1822 541l-1.142-2.478c-15.108-32.795-15.108-32.795-21.42-46.772l-1.104-2.436C1796 484.12 1796 484.12 1796 483z" fill="#011548"/><path d="M248.238 279.823l2.583-.02c2.83-.02 5.66-.031 8.491-.041l2.933-.013c5.127-.02 10.254-.035 15.381-.044a2910.17 2910.17 0 0 0 15.844-.085c4.072-.027 8.143-.035 12.215-.038a825.5 825.5 0 0 0 5.836-.035c12.827-.115 23.577-.068 33.424 9.226 6.71 7.27 12.322 15.521 18.03 23.582 3.551 5.01 7.186 9.957 10.837 14.895 4.601 6.223 9.167 12.469 13.688 18.75a2028.751 2028.751 0 0 0 15.744 21.545l1.662 2.248 1.586 2.142a327.132 327.132 0 0 1 4.29 6.053c1.881 3.033 1.881 3.033 4.218 4.012l.84-1.771c1.103-2.119 2.304-3.96 3.707-5.89l1.539-2.124 1.664-2.278 1.742-2.398c4.725-6.494 9.49-12.956 14.264-19.414a1681.34 1681.34 0 0 0 12.056-16.563c4.984-6.916 9.994-13.802 15.188-20.562l1.39-1.898C480.472 292.318 501.476 282.994 522 280c2.183-.097 4.368-.148 6.553-.161l3.883-.03 4.158-.012 2.133-.009c3.723-.015 7.445-.024 11.167-.028 3.833-.006 7.666-.03 11.5-.058 2.959-.019 5.919-.024 8.879-.026 1.412-.003 2.825-.01 4.238-.024 1.979-.017 3.958-.013 5.936-.008l3.404-.011c4.255.496 7.618 1.97 10.794 4.867 3.48 4.469 4.724 7.616 4.634 13.338-.896 6.95-6.056 12.798-10.279 18.1-4.463 5.715-8.79 11.488-12.938 17.437-4.82 6.904-9.77 13.7-14.78 20.468A1513.436 1513.436 0 0 0 549.5 370c-7.34 10.194-14.805 20.294-22.27 30.396-6.83 9.242-13.622 18.508-20.336 27.835A1694.765 1694.765 0 0 1 495 444.5c-7.54 10.18-7.54 10.18-14.908 20.484-2.689 3.803-5.416 7.454-8.518 10.93-10.835 12.593-11.32 23.434-10.887 39.563.015 2.424.023 4.849.025 7.273.019 6.338.11 12.672.223 19.009.17 10.143.236 20.287.285 30.432.03 3.512.095 7.022.165 10.534.173 12.423-.605 22.713-5.385 34.275l-1.149 2.902c-3.176 7.64-9.097 13.335-14.851 19.098l-1.813 1.848c-14.889 13.958-33.814 15.79-53.125 15.402-1.762-.02-3.524-.038-5.287-.055-4.259-.043-8.517-.112-12.775-.195-.077-7.255-.129-14.51-.165-21.765-.015-2.461-.035-4.923-.061-7.384-.342-32.967 6.911-53.49 26.546-79.886 3.437-4.624 6.817-9.287 10.18-13.965a2053.524 2053.524 0 0 1 15.27-20.895c3.944-5.344 7.85-10.714 11.73-16.105 7.34-10.194 14.805-20.294 22.27-30.396 6.83-9.242 13.622-18.508 20.336-27.835 4.508-6.255 9.08-12.462 13.664-18.664 3.944-5.344 7.85-10.714 11.73-16.105a2064.891 2064.891 0 0 1 15.27-20.895c3.944-5.344 7.85-10.714 11.73-16.105 7.34-10.194 14.805-20.294 22.27-30.396 1.765-2.388 3.529-4.777 5.292-7.167l1.53-2.066C560.797 317.964 566.89 309.476 573 301a2894.01 2894.01 0 0 0-18.884-.165c-2.136-.015-4.271-.035-6.407-.061-22.229-.273-22.229-.273-43.022 6.976l-2.033 1.063c-13.09 7.018-21.419 17.206-29.83 29.195-3.14 4.467-6.387 8.854-9.637 13.242A1808.17 1808.17 0 0 0 449.5 370a2063.456 2063.456 0 0 1-15.27 20.895A1688.354 1688.354 0 0 0 422.5 407l-4.826 6.68a1899.84 1899.84 0 0 0-3.457 4.809C392.756 448.414 392.756 448.414 374 453c-3.594.443-7.13.525-10.75.5l-2.927-.017c-15.073-.376-25.144-7.06-35.534-17.542-2.93-3.179-5.38-6.651-7.852-10.191a5078.59 5078.59 0 0 0-3.41-4.797l-1.758-2.478c-2.877-4.026-5.824-8-8.769-11.975a1812.42 1812.42 0 0 1-13.5-18.5c-6.76-9.388-13.624-18.697-20.5-28-8.528-11.539-17.029-23.096-25.39-34.756a2367.275 2367.275 0 0 0-3.31-4.6 2192.52 2192.52 0 0 1-4.988-6.957l-1.531-2.12c-4.277-6.015-6.712-10.953-5.781-18.567 3.322-9.772 10.673-13.145 20.238-13.177z" fill="#fcfcfc"/><path d="M1283.063 51.813c17.476 14.5 30.193 34.252 32.937 57.187 1.075 14.375.858 28.334-4 42l-1.285 3.621c-8.966 22.801-26.469 39.823-48.713 49.57-21.521 8.698-46.848 8.714-68.357.114-9.636-4.105-17.764-9.449-25.645-16.305l-2.45-2.11c-16.548-15.364-25.602-37.516-26.753-59.827-.489-25.448 8.044-49.025 25.703-67.574 32.022-31.773 83.302-33.987 118.563-6.676z" fill="#bc8237"/><path d="M252 300c9.414-.093 18.828-.164 28.243-.207 4.372-.021 8.744-.05 13.115-.095 4.221-.043 8.442-.067 12.663-.078 1.609-.007 3.217-.021 4.825-.043a493.04 493.04 0 0 1 6.772-.031l3.89-.027c4.802.661 7.896 2.737 11.144 6.286l1.286 1.855 1.5 2.125 1.562 2.278c1.146 1.628 2.293 3.255 3.441 4.882l1.778 2.536c2.848 4.029 5.783 7.992 8.719 11.957l3.523 4.773L358 341c7.413 10.03 14.802 20.073 22.082 30.2 2.897 4.024 5.82 8.028 8.773 12.01l1.938 2.614c1.235 1.664 2.474 3.325 3.715 4.985l1.691 2.277 1.495 2.001c1.301 1.906 2.326 3.827 3.306 5.913a4484.7 4484.7 0 0 1-6.625 9.063l-1.871 2.568c-10.66 14.53-10.66 14.53-16.629 17.244l-2.508 1.18c-6.86 2.74-13.455 2.897-20.43.383-9.288-4.165-14.479-11.205-20.113-19.375-3.112-4.513-6.371-8.91-9.636-13.313A1794.791 1794.791 0 0 1 309.5 380c-4.46-6.197-8.962-12.36-13.5-18.5a2032.937 2032.937 0 0 1-15.099-20.722 1700.844 1700.844 0 0 0-12.088-16.528c-4.261-5.77-8.505-11.549-12.688-17.375l-1.282-1.776C252 301.119 252 301.119 252 300z" fill="#021649"/><path d="M443.945 198.07c8.993 8.446 16.629 18.77 17.223 31.54.176 15.907-3.476 28.203-14.168 40.39-11.568 10.206-24.715 14.045-39.896 13.218-12.609-1.305-23.543-8.67-31.541-18.155C366.89 253.48 364.437 240.184 366 226c2.967-13.22 10.21-23.004 21-31 17.765-11.237 40.642-10.845 56.945 3.07z" fill="#021648"/><path d="M582 918v-6h25c.09 10.501.164 21.003.207 31.504.021 4.878.05 9.755.095 14.632.043 4.714.067 9.427.078 14.141.007 1.792.021 3.583.043 5.374.166 14.279-1.114 25.532-11.423 36.349-2.497 2.367-5.052 4.23-8 6l-2.438 1.477c-11.221 5.706-25.791 5.22-37.75 1.96-10.98-4.067-17.816-10.364-22.968-20.773C524 1000 524 1000 524 993h25l5 9c3.433 2.817 6.57 3.83 11 4 4.744-.865 8.708-2.177 11.938-5.875 3.392-5.14 4.312-8.765 4.187-14.937l-.055-3.52L581 979l-2 1.813c-6.224 4.538-12.274 5.73-19.875 5.625l-2.396-.03c-10.293-.312-16.972-3.661-24.46-10.76-8.844-10.32-10.088-21.333-9.482-34.307C523.7 931.306 529.7 923.53 537 917c13.404-10.301 31.834-8.647 45 1zm-26.703 16.445c-4.069 4.247-6.168 8.63-6.297 14.555.951 5.457 2.992 10.106 7 14 4.432 2.856 7.76 3.561 13 3 5.436-1.886 8.768-5.368 12-10 1.67-5.012 2.065-10.305.094-15.293-3.304-5.643-7.125-8.897-13.532-10.644-5.023-.089-8.404 1.106-12.265 4.382zM1618.258 916.465C1620 918 1620 918 1622 921l1.215-1.172c7.626-6.986 15.411-9.93 25.785-9.828 8.233.58 14.954 3.57 20.566 9.715 8.579 12.112 6.797 28.58 6.622 42.598a4727.33 4727.33 0 0 0-.042 6.326c-.03 5.12-.088 10.24-.146 15.361h-25l-.148-8.434c-.055-2.72-.112-5.44-.17-8.161-.037-1.879-.072-3.758-.104-5.636-.046-2.714-.104-5.427-.164-8.14l-.035-2.51c-.192-9.638-.192-9.638-3.941-18.244-3.932-1.411-7.461-1.047-11.438.125-4.47 3.668-5.074 8.55-6 14-.284 2.992-.369 5.968-.414 8.973l-.059 2.45c-.059 2.546-.106 5.093-.152 7.64-.038 1.741-.077 3.483-.117 5.224-.097 4.238-.177 8.475-.258 12.713h-25l-.078-9.852c-.039-3.157-.084-6.314-.13-9.472-.028-2.19-.049-4.38-.063-6.57a993.273 993.273 0 0 0-.12-9.458l-.003-2.955c-.125-5.83-.704-9.259-4.606-13.693-3.1-1.131-5.834-.86-9 0-4.06 3.045-6.533 7.7-7.527 12.596-.55 3.958-.701 7.877-.79 11.865l-.062 2.396c-.065 2.506-.125 5.012-.183 7.518l-.131 5.121c-.108 4.168-.207 8.336-.307 12.504h-25v-72h25l1 7 1.355-1.242c10.866-9.684 24.043-9.786 35.903-1.293zM2282.75 920.063c8.635 9.268 10.724 20.193 10.527 32.335-.45 10.988-5.68 19.447-13.527 26.852-9.41 7.438-20.175 8.102-31.75 6.75-5.604-1.384-9.39-3.542-14-7l-1 46h-25V912h25l1 7 2.5-2.313c13.29-10.986 34.028-7.59 46.25 3.375zm-46 17.125c-2.794 4.49-4.244 8.913-3.34 14.218 1.776 5.823 4.166 9.996 9.34 13.407 4.78 1.746 8.687 2.235 13.398.308 6.056-3.41 8.595-7.35 10.79-13.933.108-5.516-.929-10.882-4.63-15.13-4.944-4.284-8.226-5.415-14.769-5.34-4.811.534-7.449 3.222-10.789 6.47zM1766.75 920.063c8.635 9.268 10.724 20.193 10.527 32.335-.45 10.988-5.68 19.447-13.527 26.852-9.41 7.438-20.175 8.102-31.75 6.75-5.604-1.384-9.39-3.542-14-7l-1 46h-25V912h25l1 7 2.5-2.313c13.29-10.986 34.028-7.59 46.25 3.375zm-46 17.125c-2.794 4.49-4.244 8.913-3.34 14.218 1.776 5.823 4.166 9.996 9.34 13.407 4.78 1.746 8.687 2.235 13.398.308 6.056-3.41 8.595-7.35 10.79-13.933.108-5.516-.929-10.882-4.63-15.13-4.944-4.284-8.226-5.415-14.769-5.34-4.811.534-7.449 3.222-10.789 6.47zM2042 874h65v23h-40v21h38v22h-38v21h40v23h-65V874z" fill="#011548"/><path d="M453.02 185.336C465.09 195.425 473.965 209.194 476 225c1.507 20.635-1.752 36.7-15.398 52.836-11.081 11.86-25.302 19.656-41.73 20.504-17.67.504-32.509-2.736-46.185-14.715A263.866 263.866 0 0 1 368 279l-2.184-2.117c-5.675-5.858-8.764-12.38-11.816-19.883l-1.102-2.516c-4.273-11.816-3.998-30.467.856-41.972L355 210l1.215-2.73c5.598-11.506 14.862-20.751 25.785-27.27l2.285-1.426c21.373-12.095 49.818-7.872 68.735 6.762zm-73.958 16.102c-9.43 10.11-13.72 21.374-13.532 35.199.563 13.45 5.908 25.35 15.657 34.676C393.027 281.169 405.966 283.94 421 283c11.476-1.855 23.077-8.509 30.098-17.766 8.553-12.356 11.28-24.231 9.902-39.234-2.683-12.313-10.199-23.442-20.418-30.723-20.15-12.714-44.287-10.25-61.52 6.16z" fill="#fbfbfc"/><g fill="#011548"><path d="M209 916l2 2 1-5h25v71h-25v-5l-2.047 1.277-2.703 1.66-2.672 1.653c-7.723 4.224-19.152 3.437-27.633 1.832-9.271-3.259-16.127-10.161-20.507-18.797-4.479-9.82-5.007-20.63-2.637-31.195 3.623-9.539 10.498-18.014 19.765-22.528 11.978-4.44 24.485-3.513 35.434 3.098zm-24.75 20.125c-3.274 4.184-5.44 8.594-5.125 14.023 1.186 5.53 3.675 10.08 8.125 13.664 5.158 2.228 9.043 2.659 14.375 1.188 4.918-2.914 8.548-6.52 10.375-12 .564-5.69.328-10.17-3-15-3.164-3.566-6.214-6.208-11-7.063-5.502-.287-9.466 1.878-13.75 5.188zM17 874h88v23H74v87H49v-87H17v-23zM1246 915l2.441 1.32c8.044 4.85 13.223 11.597 15.559 20.68v14h-55c3.477 9.908 3.477 9.908 11 16 5.51.367 9.357.347 14-3l3-7h26c-1.386 9.7-5.23 16.331-12.848 22.531-8.076 5.512-15.736 6.666-25.277 6.719l-2.727.063c-11.211.064-21.585-3.313-29.968-10.977-9.222-10.149-9.876-20.984-9.355-34.097.736-9.427 6.347-15.734 12.984-21.927 12.88-10.711 35.53-12.382 50.191-4.312zm-35 18.563c-1.19 2.46-1.19 2.46-1 5.437h30c-2.204-6.612-2.78-7.271-8-11-7.872-2.624-15.793-1.109-21 5.563zM2375.438 921.75c8.67 9.375 10.026 19.305 9.84 31.492-.219 5.569-1.376 9.976-4.278 14.758l-1.285 2.16c-3.615 5.387-8.046 8.774-13.715 11.84l-2.285 1.258c-10.34 4.687-25.249 4.72-35.965 1.117-2.465-1.117-2.465-1.117-4.75-2.375l-2.441-1.32c-5.504-3.319-9.28-7.168-12.559-12.68l-1.254-2.066c-4.456-8.928-3.988-20.412-2.156-30.032 3.02-8.784 10.35-16.45 18.387-20.945 17.205-8.137 38.18-6.369 52.46 6.793zm-43.376 13.813c-3.928 5.525-4.525 12.14-3.5 18.687 1.286 5.275 3.539 8.954 8.266 11.883 4.233 1.69 8.704 1.398 13.172.867 4.081-2.04 6.53-4.216 9-8 2.17-6.72 2.792-13.41 0-20-2.533-4.46-5.33-7.188-10.313-8.625-6.598-1.002-11.662.859-16.624 5.188zM1859.438 921.75c8.67 9.375 10.026 19.305 9.84 31.492-.219 5.569-1.376 9.976-4.278 14.758l-1.285 2.16c-3.615 5.387-8.046 8.774-13.715 11.84l-2.285 1.258c-10.34 4.687-25.249 4.72-35.965 1.117-2.465-1.117-2.465-1.117-4.75-2.375l-2.441-1.32c-5.504-3.319-9.28-7.168-12.559-12.68l-1.254-2.066c-4.456-8.928-3.988-20.412-2.156-30.032 3.02-8.784 10.35-16.45 18.387-20.945 17.205-8.137 38.18-6.369 52.46 6.793zm-43.376 13.813c-3.928 5.525-4.525 12.14-3.5 18.687 1.286 5.275 3.539 8.954 8.266 11.883 4.233 1.69 8.704 1.398 13.172.867 4.081-2.04 6.53-4.216 9-8 2.17-6.72 2.792-13.41 0-20-2.533-4.46-5.33-7.188-10.313-8.625-6.598-1.002-11.662.859-16.624 5.188zM1387.438 921.75c8.67 9.375 10.026 19.305 9.84 31.492-.219 5.569-1.376 9.976-4.278 14.758l-1.285 2.16c-3.615 5.387-8.046 8.774-13.715 11.84l-2.285 1.258c-10.34 4.687-25.249 4.72-35.965 1.117-2.465-1.117-2.465-1.117-4.75-2.375l-2.441-1.32c-5.504-3.319-9.28-7.168-12.559-12.68l-1.254-2.066c-4.456-8.928-3.988-20.412-2.156-30.032 3.02-8.784 10.35-16.45 18.387-20.945 17.205-8.137 38.18-6.369 52.46 6.793zm-43.376 13.813c-3.928 5.525-4.525 12.14-3.5 18.687 1.286 5.275 3.539 8.954 8.266 11.883 4.233 1.69 8.704 1.398 13.172.867 4.081-2.04 6.53-4.216 9-8 2.17-6.72 2.792-13.41 0-20-2.533-4.46-5.33-7.188-10.313-8.625-6.598-1.002-11.662.859-16.624 5.188zM1038 912h25l.148 10.14c.054 3.24.112 6.48.17 9.72.038 2.253.073 4.505.104 6.758.046 3.237.104 6.473.164 9.71l.035 3.053.06 2.85.04 2.504c.31 2.51.94 4.127 2.279 6.265 3.033 1.82 4.946 2.001 8.5 1.938 4.228-1.133 5.795-2.538 8.5-5.938 2.535-4.718 2.346-9.45 2.414-14.676l.059-2.803c.06-2.945.106-5.889.152-8.833.038-2.001.077-4.002.117-6.002.098-4.896.177-9.79.258-14.686h25v72h-25l-1-5-2.063 1.813c-5.97 4.446-11.087 5.726-18.374 5.625l-2.273-.021c-7.249-.211-11.346-2.008-17.04-6.667-4.963-6.065-7.382-12.246-7.364-20.07v-3.214l.016-3.45.005-3.548c.005-3.74.018-7.479.03-11.218.006-2.535.01-5.07.014-7.605.01-6.215.03-12.43.049-18.645zM776 917c6.793 8.27 7.292 16.746 7.195 27.059l-.008 3.467c-.011 3.637-.037 7.274-.062 10.912-.01 2.473-.02 4.946-.027 7.42-.02 6.047-.06 12.094-.098 18.142h-25l-.078-10.105a4246.48 4246.48 0 0 0-.13-9.7c-.028-2.246-.049-4.492-.063-6.737-.021-3.23-.068-6.459-.12-9.688l-.003-3.038c-.093-4.417-.178-7.027-2.51-10.864-2.365-2.107-3.34-2.548-6.471-2.493-5.07.292-7.238 1.907-10.625 5.625-3.213 5.966-3.17 12.825-3.316 19.46l-.063 2.397c-.065 2.506-.125 5.012-.183 7.518l-.131 5.121c-.108 4.168-.207 8.336-.307 12.504h-25v-72h25l1 7 2.563-2.312c10.63-8.788 28.014-9.265 38.437.312zM503 917c6.793 8.27 7.292 16.746 7.195 27.059l-.008 3.467c-.011 3.637-.037 7.274-.062 10.912-.01 2.473-.02 4.946-.027 7.42-.02 6.047-.06 12.094-.098 18.142h-25l-.078-10.105a4246.48 4246.48 0 0 0-.13-9.7c-.028-2.246-.049-4.492-.063-6.737-.021-3.23-.068-6.459-.12-9.688l-.003-3.038c-.093-4.417-.178-7.027-2.51-10.864-2.365-2.107-3.34-2.548-6.471-2.493-5.07.292-7.238 1.907-10.625 5.625-3.213 5.966-3.17 12.825-3.316 19.46l-.063 2.397c-.065 2.506-.125 5.012-.184 7.518l-.13 5.121c-.108 4.168-.207 8.336-.307 12.504h-25v-72h25l1 7 2.562-2.312c10.63-8.788 28.015-9.265 38.438.312zM368 917c6.793 8.27 7.292 16.746 7.195 27.059l-.008 3.467c-.011 3.637-.037 7.274-.062 10.912-.01 2.473-.02 4.946-.027 7.42-.02 6.047-.06 12.094-.098 18.142h-25l-.078-10.105a4246.48 4246.48 0 0 0-.13-9.7c-.028-2.246-.049-4.492-.063-6.737-.021-3.23-.068-6.459-.12-9.688l-.003-3.038c-.093-4.417-.178-7.027-2.51-10.864-2.365-2.107-3.34-2.548-6.471-2.493-5.07.292-7.238 1.907-10.625 5.625-3.213 5.966-3.17 12.825-3.316 19.46l-.063 2.397c-.065 2.506-.125 5.012-.184 7.518l-.13 5.121c-.108 4.168-.207 8.336-.307 12.504h-25v-72h25l1 7 2.562-2.312c10.63-8.788 28.015-9.265 38.438.312zM830.313 910.688l3.263-.05c9.487-.005 18.119 1.366 25.662 7.487 4.571 4.865 6.905 10.256 6.762 16.875-3.916.174-7.831.28-11.75.375l-3.367.152c-3.072.056-5.864.05-8.883-.527-2.64-2.96-2.64-2.96-4-6-2.464-1.232-4.19-1.167-6.938-1.188l-2.652-.042c-2.672.063-2.672.063-5.41 2.23l1 5 2.044.396c3.113.608 6.222 1.23 9.331 1.854l3.215.621c10.375 2.1 19.8 4.523 26.722 12.942 3.052 5.705 2.435 12.951 1.688 19.187-2.7 6.658-7.096 10.876-13.625 13.813-6.968 2.451-13.614 2.438-20.938 2.5l-3.384.087c-10.394.079-20.16-1.968-28.366-8.685C794.444 971.37 793 965.907 793 957h24l4 8c4.384 2.923 8.792 3.089 14 3 3.574-1.237 3.574-1.237 6-3v-5c-5.948-3.297-11.2-4.88-17.875-6-18.895-3.527-18.895-3.527-25.066-11.219-2.995-5.04-2.447-10.772-1.371-16.343 2.485-6.51 5.939-9.662 12.054-12.579 7.356-2.8 13.713-3.195 21.57-3.172zM1438.98 861.902l3.526.01 3.682.026 3.716.013c3.032.012 6.064.03 9.096.049v19l-8.3.684c-2.794.234-2.794.234-5.7 1.316-1.368 2.737-1.216 5.043-1.316 8.102l-.127 3.671-.12 3.852-.13 3.875c-.107 3.167-.207 6.333-.307 9.5h16v20h-16v52h-25v-52h-11v-20h11l-.048-2.902c-.054-3.586-.088-7.172-.117-10.758a644.725 644.725 0 0 0-.061-4.637c-.307-18.627-.307-18.627 5.664-25.515 5.313-4.536 8.43-6.32 15.542-6.286zM2115 913c26.057-2.55 26.057-2.55 32.354 1.522 3.356 3.691 5.333 7.95 6.864 12.669.91 2.105 2.085 3.29 3.782 4.809l.625-1.744c2.58-6.584 5.506-13.045 11.375-17.256 9.657-2.474 20.217-1.15 30 0-3.08 5.764-6.754 10.762-10.813 15.875l-1.79 2.277a2643.656 2643.656 0 0 1-3.571 4.53A1931.95 1931.95 0 0 0 2175 947c1.496 3.092 3.135 5.583 5.313 8.25l2.128 2.621 1.208 1.476c1.547 1.893 3.088 3.79 4.628 5.688 2.255 2.778 4.512 5.554 6.77 8.328l1.533 1.893a439.21 439.21 0 0 0 3.81 4.6C2202 982 2202 982 2202 984c-26.539 3.032-26.539 3.032-33.744-1.865-4.645-4.974-7.729-10.85-10.256-17.135-2.86 2.418-4.06 4.148-5.488 7.672-1.996 4.754-3.953 8.638-8.512 11.328-10.112 2.003-20.804.903-31 0 1.291-2.767 2.706-5.05 4.652-7.398l1.59-1.933 1.695-2.044c1.17-1.43 2.34-2.859 3.508-4.29 1.746-2.13 3.492-4.258 5.242-6.385a883.047 883.047 0 0 0 4.626-5.7l1.435-1.732c2.573-3.214 3.252-4.239 3.252-8.518-1.11-1.96-1.11-1.96-2.71-3.836l-1.762-2.207-1.903-2.332c-1.283-1.609-2.565-3.22-3.844-4.832l-1.933-2.432c-2.668-3.409-5.214-6.897-7.723-10.424l-1.279-1.784c-2.846-4.02-2.846-4.02-2.846-5.153z"/></g><path d="M439 520h1c.116 10.206.205 20.412.26 30.619.025 4.74.06 9.48.117 14.22.055 4.585.085 9.169.097 13.753.01 1.74.027 3.479.055 5.218.214 14.284-1.708 25.843-11.44 37.042-7.715 7.931-18.51 13.946-29.76 14.246a548.72 548.72 0 0 1-4.079-.035l-2.113-.014c-1.713-.012-3.425-.03-5.137-.049-.126-4.55-.215-9.097-.275-13.647-.024-1.54-.058-3.08-.102-4.62-.684-24.608 10.09-41.035 24.501-60.228 3.045-4.067 6.053-8.162 9.063-12.255l1.744-2.363c2.8-3.795 5.589-7.597 8.358-11.414l1.55-2.132c.961-1.323 1.92-2.648 2.875-3.975A199.936 199.936 0 0 1 439 520z" fill="#021648"/><path d="M775 364c2 1 2 1 3.237 4.187.463 1.412.917 2.826 1.365 4.243l.73 2.26c.51 1.582 1.016 3.164 1.519 4.747.77 2.424 1.552 4.843 2.337 7.262.492 1.535.985 3.07 1.476 4.606l.71 2.197c.93 2.947 1.626 5.387 1.626 8.498h40c-3.214 3.214-5.832 5.776-9.398 8.375l-2.454 1.797-2.523 1.828-2.5 1.828A1583.234 1583.234 0 0 1 797 426l1.026 3.15c1.253 3.858 2.493 7.72 3.729 11.584.536 1.671 1.077 3.342 1.62 5.01.782 2.4 1.55 4.804 2.316 7.21l.745 2.257c1.166 3.705 1.727 6.084.564 9.789a5604.97 5604.97 0 0 1-5.792-4.168c-1.644-1.184-3.29-2.365-4.937-3.545-3.715-2.67-7.402-5.35-10.962-8.224l-3.121-2.5-2.708-2.247c-2.4-1.647-2.4-1.647-4.865-.589-2.561 1.247-4.672 2.606-6.943 4.32l-2.426 1.812-2.496 1.891c-6.131 4.616-12.315 9.065-18.75 13.25-1.35-4.053.003-6.752 1.344-10.625l.751-2.252c1.062-3.183 2.145-6.359 3.226-9.535.785-2.319 1.56-4.64 2.335-6.963l.755-2.178c1.438-4.18 1.438-4.18.589-8.447a100.42 100.42 0 0 0-6.063-4.438c-1.265-.88-2.53-1.763-3.792-2.648l-2.03-1.417c-3.709-2.625-7.35-5.338-10.99-8.06l-2.145-1.59A252.928 252.928 0 0 1 723 403v-1h40l2-9c.752-2.42 1.546-4.83 2.383-7.223l.664-1.912c.688-1.977 1.383-3.952 2.078-5.927l1.418-4.069c1.147-3.291 2.3-6.58 3.457-9.869z" fill="#05194b"/><path d="M51 366c2.713 2.713 3.447 5.845 4.602 9.414.32.97.32.97.649 1.96.798 2.415 1.585 4.833 2.374 7.251L64 401l38 1v2c-1.462 1.278-1.462 1.278-3.516 2.723l-2.296 1.634-2.438 1.705a3368.168 3368.168 0 0 0-4.64 3.286l-2.432 1.723C81.728 418.637 76.867 422.32 72 426l1.01 3.181c1.233 3.887 2.462 7.775 3.69 11.663a4327.56 4327.56 0 0 0 1.6 5.052c.767 2.416 1.531 4.834 2.294 7.252l.729 2.29C83 460.771 83 460.771 83 463c-3.834-1.355-6.68-3.082-9.871-5.59l-2.74-2.127-2.826-2.22C59.75 446.776 59.75 446.776 51 442a4279.92 4279.92 0 0 0-7.75 5.438l-2.33 1.637c-5.668 4-11.217 8.126-16.697 12.378C22 463 22 463 20 463a67.938 67.938 0 0 1 3.066-13.703l1.221-3.719 1.276-3.828c.84-2.524 1.673-5.05 2.503-7.578l1.124-3.372c.949-2.795.949-2.795.81-5.8a73.758 73.758 0 0 0-6-4.438 1643.46 1643.46 0 0 1-3.82-2.648l-2.048-1.417c-3.723-2.614-7.366-5.334-11.007-8.06l-2.145-1.59A252.334 252.334 0 0 1 0 403v-1h39l3-11c.648-2.103 1.313-4.2 2.008-6.29l1.05-3.16 1.067-3.175 1.09-3.293 1.043-3.121.942-2.819C50 367 50 367 51 366z" fill="#04184a"/><path d="M2469 884h24v28h13v19h-13v53h-24v-53h-13v-19h13v-28zM1952 884h24v28h13v19h-13v53h-24v-53h-13v-19h13v-28zM1137 884h24v28h13v19h-13v53h-24v-53h-13v-19h13v-28zM990 884h24v28h13v19h-13v53h-24v-53h-13v-19h13v-28zM888 884h24v28h13v19h-13v53h-24v-53h-13v-19h13v-28zM1511 874h25v110h-25V874zM666 874h25v110h-25V874zM2451 911c1 1 1 1 1.114 3.225l-.016 2.904-.01 3.135-.026 3.298-.013 3.311c-.012 2.71-.028 5.418-.049 8.127l-6-3c-4.194-.606-8.208-.84-12.11.988-5.208 3.951-6.733 8.761-7.89 15.012-.59 6.188-.603 12.414-.688 18.625-.033 1.689-.067 3.378-.103 5.066-.087 4.103-.147 8.205-.209 12.309h-25v-72h25l1 6 1.434-1.242c7.497-6.109 14.114-7.615 23.566-5.758zM1935 911c1 1 1 1 1.114 3.225l-.016 2.904-.01 3.135-.025 3.298-.014 3.311c-.012 2.71-.028 5.418-.049 8.127l-6-3c-4.194-.606-8.208-.84-12.11.988-5.208 3.951-6.733 8.761-7.89 15.012-.59 6.188-.603 12.414-.688 18.625-.033 1.689-.067 3.378-.103 5.066-.087 4.103-.147 8.205-.209 12.309h-25v-72h25l1 6 1.434-1.242c7.497-6.109 14.114-7.615 23.566-5.758zM145 911c1 1 1 1 1.114 3.225l-.016 2.904-.01 3.135-.025 3.298-.014 3.311c-.012 2.71-.028 5.418-.049 8.127l-6-3c-4.194-.606-8.208-.84-12.11.988-5.208 3.951-6.733 8.761-7.89 15.012-.59 6.188-.603 12.414-.688 18.625-.033 1.689-.067 3.378-.103 5.066-.087 4.103-.147 8.205-.209 12.309H94v-72h25l1 6 1.434-1.242c7.497-6.109 14.114-7.615 23.566-5.758zM938 912h25v72h-25v-72zM392 912h25v72h-25v-72zM256 912h25v72h-25v-72z" fill="#011548"/><path d="M96 249c1.586 1.957 1.586 1.957 3.375 4.813l2.117 3.3 1.19 1.862c2.532 3.892 5.187 7.7 7.818 11.525a29643.1 29643.1 0 0 1 3.352 4.918 362.282 362.282 0 0 0 5.796 8.258l2.227 3.137 1.93 2.644c1.861 3.96.736 6.867-.559 10.879L121 306h-2a113.382 113.382 0 0 1-4.313-6.313 397301656.749 397301656.749 0 0 1-4.149-6.355c-2.708-4.106-5.5-8.154-8.288-12.207-4.132-6.01-8.22-12.046-12.25-18.125-13.078.712-25.999 2.69-38.96 4.491-2.99.415-5.98.823-8.97 1.232l-2.75.388c-4.826.657-9.449 1.024-14.32.889.477-1.626.957-3.25 1.438-4.875l.808-2.742C28 260 28 260 29 258c2.062-.572 2.062-.572 4.777-1.017l3.031-.5a793.076 793.076 0 0 1 15.755-2.21l3.496-.462c2.416-.319 4.833-.636 7.25-.953 3.709-.485 7.417-.976 11.125-1.467l7.066-.93 3.362-.445 3.107-.405 2.732-.359C93 249 93 249 96 249zM729 249c14.64 1.61 29.257 3.38 43.86 5.288 1.718.225 3.436.448 5.153.67 2.432.316 4.864.635 7.296.956l2.222.287c2.955.395 5.632.853 8.469 1.799 1.168 2.215 1.168 2.215 2.188 4.938l1.042 2.714C800 268 800 268 800 270c-12.614-.627-25.057-2.369-37.563-4.062-3.135-.424-6.27-.846-9.406-1.264-1.937-.259-3.874-.52-5.81-.785l-2.653-.354-2.315-.314c-2.475-.243-4.77-.429-7.253-.221-1.78 2.096-3.1 3.978-4.5 6.313-.868 1.374-1.738 2.748-2.61 4.12l-1.4 2.234c-2.644 4.14-5.45 8.167-8.24 12.208a5112.24 5112.24 0 0 0-3.172 4.617l-1.533 2.226a248.685 248.685 0 0 0-3.2 4.853l-1.61 2.5-1.447 2.281L706 306h-2a239.637 239.637 0 0 1-2.063-4.625l-1.16-2.602c-.96-3.43-.764-5.354.223-8.773 1.723-2.805 1.723-2.805 4.062-5.875 5.054-6.78 9.765-13.765 14.438-20.813l2.14-3.224c1.276-1.921 2.55-3.843 3.823-5.766 1.176-1.776 2.356-3.55 3.537-5.322z" fill="#bc8237"/><path d="M86 275c2.03 1.958 2.03 1.958 3.832 4.703l2.053 3.049L94 286c1.439 2.1 2.88 4.2 4.324 6.297 1.456 2.15 2.91 4.3 4.364 6.453 1.461 2.162 2.923 4.323 4.386 6.484l2.046 3.04c1.582 2.294 3.232 4.49 4.939 6.69C116 318 116 318 116.086 320.583l-.711 2.23-.664 2.27C114 327 114 327 113 329h-2c-1.398-1.718-1.398-1.718-3.02-4.145l-1.831-2.715-1.962-2.953-4.058-6.039-2.078-3.102a846.67 846.67 0 0 0-5.899-8.632l-1.803-2.61a2291.03 2291.03 0 0 0-3.399-4.899l-1.536-2.23-1.345-1.94C83 288 83 288 82 285l-2.82.48c-11.068 1.836-22.175 3.379-33.294 4.863-1.708.229-3.415.459-5.122.69-2.445.332-4.892.656-7.338.979l-2.212.302c-4.776.618-9.397.772-14.214.686l3-10c7.719-1.048 15.438-2.091 23.158-3.13a8052.4 8052.4 0 0 0 10.755-1.452 5554.3 5554.3 0 0 1 10.387-1.4c1.958-.264 3.915-.531 5.872-.798l3.639-.486 3.19-.43c3.048-.309 5.94-.492 8.999-.304z" fill="#bc8237"/><path d="M769.43 48.438C777.61 54.168 782.767 62.312 785 72c1.087 11.58-.343 21.155-7.062 30.75-6.536 7.829-15.37 12.633-25.516 13.586-12.772.136-20.999-2.033-30.262-11.047-8.078-8.56-10.809-17.203-10.515-29.039C712.84 65.31 718.513 55.883 727 49c13.485-8.083 28.725-8.671 42.43-.563zm-46.805 12.156C717.202 68.624 715.864 76.39 717 86c2.037 8.912 7.282 15.64 14.66 20.895 7.882 4.53 15.385 5.518 24.34 4.105 9.866-3.254 17.061-8.857 21.938-18 3.252-7.904 3.624-16.243.953-24.379-4.372-9.39-10.087-15.759-19.739-19.73-14.234-4.022-27.341.22-36.527 11.703z"/><path d="M741.508 274.605l3.062.36 3.767.413c1.555.206 3.109.413 4.663.622l6.015.758c6.96.892 13.91 1.847 20.86 2.805l7.324.998c5.934.808 11.868 1.622 17.801 2.439 1.498 3.371 2 5.204 2 9a40617.599 40617.599 0 0 1-20.98-2.14l-7.73-.79-2.587-.264c-4.28-.441-8.558-.898-12.833-1.385l-2.474-.282c-1.535-.176-3.07-.354-4.606-.536-5.387-.688-5.387-.688-10.79-.603a50.514 50.514 0 0 0-5.125 6.125l-2.91 3.879-1.489 2.016c-2.284 3.064-4.663 6.05-7.038 9.043a560.828 560.828 0 0 0-8.282 10.707l-1.384 1.833c-.872 1.158-1.74 2.32-2.6 3.487-1.011 1.34-2.086 2.63-3.172 3.91h-2c-1.574-3.51-2.207-5.23-2-9 1.868-3.502 4.218-6.513 6.656-9.625 4.24-5.418 7.944-11.19 11.719-16.937 1.36-2.066 2.721-4.13 4.086-6.192l1.775-2.697L735 280l1.873-2.826C739 275 739 275 741.508 274.605z" fill="#bc8237"/><path d="M531 733c1.598 4.622 3.183 9.248 4.755 13.88a1032.58 1032.58 0 0 0 1.62 4.72c.783 2.26 1.55 4.525 2.316 6.79l.745 2.125c2.017 6.047 2.017 6.047.564 9.485l-6 1c-2.36-5.15-3.568-9.271-5-15l-1 18-6 1-7-9c-.23 2.92-.23 2.92 1 4.938 1 2.062 1 2.062 1 6.062-2.647 1.46-3.894 2-7 2a3545.073 3545.073 0 0 1-4.375-12.875l-1.25-3.648c-2.283-6.775-4.227-13.416-5.375-20.477 2.906-1.257 4.796-2 8-2 1.518 1.62 1.518 1.62 3.102 3.867l1.734 2.434 1.789 2.574c.598.842 1.196 1.684 1.813 2.55 4.353 6.156 4.353 6.156 5.562 8.575l1-25c4-2 4-2 8-2z" fill="#fcfaf8"/><path d="M113 573c3.108 4.144 3.108 4.144 2.75 6.976-.835 2.254-1.768 3.437-3.438 5.153l-1.617 1.697-1.695 1.736a621.053 621.053 0 0 0-3.313 3.442l-1.488 1.526c-1.432 1.578-1.432 1.578-2.199 4.47l3.219-.656 4.281-.844 2.11-.434c4.88-.948 9.417-1.455 14.39-1.066 2 3 2 3 2.019 4.928-1.57 3.191-4.338 4.503-7.32 6.217l-1.917 1.133a506.381 506.381 0 0 1-4.028 2.342 494.017 494.017 0 0 0-6.143 3.62c-1.303.762-2.607 1.521-3.912 2.28l-1.85 1.104c-4.3 2.44-4.3 2.44-7.268 2.094L94 618l-1-5 11-7-4.625 1c-7.524 1.481-7.524 1.481-11.375 1-2-3-2-3-1.848-4.922 1.061-2.601 2.515-4.26 4.41-6.328l1.942-2.14L94 593l-1.828 1.164-2.422 1.461-2.39 1.477c-2.36.898-2.36.898-4.594.296-2.152-1.704-2.232-2.779-2.766-5.398 6.663-4.554 13.49-8.772 20.438-12.875l3.005-1.797 2.866-1.695 2.587-1.535C111 573 111 573 113 573z" fill="#fcfbf8"/><path d="M678 625c2.79 1.292 5.01 2.697 7.32 4.723l1.86 1.62 1.945 1.72 2.002 1.752c5.335 4.68 10.626 9.407 15.873 14.185l-2 5c-4.97 0-5.73-1.165-9.25-4.5l-2.703-2.531L691 645a2971.69 2971.69 0 0 0 2.938 5.438l1.652 3.058c1.187 2.37 1.187 2.37 2.41 3.504.188 2.438.188 2.438 0 5l-2 2c-4.818-.336-8.672-2.01-13-4l8 7c-1 4-1 4-3 6-3.85-.262-5.854-2.43-8.563-5a191.517 191.517 0 0 0-11.25-9.688c-3.927-3.17-7.179-6.266-10.187-10.312l4-5c3.435.598 6.442 1.475 9.645 2.848l2.548 1.084 2.62 1.13 2.677 1.143c2.172.927 4.342 1.86 6.51 2.795l-1.133-1.864c-1.681-2.786-3.337-5.585-4.992-8.386l-1.785-2.934-1.66-2.832c-.514-.858-1.027-1.717-1.555-2.602C674 631 674 631 674.723 628.813 676 627 676 627 678 625z" fill="#fdfbf9"/><path d="M153 632c2.834 1.923 4.543 3.9 6 7 .774 4.299-.195 7.555-2.297 11.328-4.435 6.21-11.842 13.514-19.621 15.05-3.72.302-6.126.307-9.23-1.917-3.029-3.201-4.661-5.64-5.665-9.961 2.198-9.467 11.128-16.28 18.813-21.563 4.276-1.336 7.742-1.407 12 .063z" fill="#fcfaf8"/><path d="M414 754c3.77 1.72 5.65 4.235 7.375 8 1.793 8.464 1.74 18.239-2.375 26-2.288 2.843-3.784 3.792-7.371 4.406-4.582.273-6.883.154-10.629-2.656-3.993-5.49-4.365-9.354-4.375-16l-.074-2.488c-.028-5.818 1-10.476 4.449-15.262 4.261-2.84 8-2.747 13-2z" fill="#fcfaf7"/><path d="M276 725c12.952 4.06 12.952 4.06 16 9 1.716 8.52-1.176 16.445-5 24-2.22 3.088-4.832 4.888-8 7-6.671.69-11.107-.944-17-4 .602-4.658 1.881-8.565 3.688-12.895l.795-1.917a964.529 964.529 0 0 1 1.664-3.976c.857-2.033 1.703-4.07 2.548-6.108 4.149-9.948 4.149-9.948 5.305-11.104zM427 753a343.43 343.43 0 0 1 7.688-.313l2.185-.126c4.226-.097 5.658.055 9.065 2.845 3.873 4.872 4.74 8.407 4.062 14.594a177.537 177.537 0 0 1-2 4c.263 3.243 1.246 5.561 2.563 8.563C452 786 452 786 452 790l-7 1-1.207-2.59-1.606-3.347-1.582-3.34c-1.373-3.01-1.373-3.01-4.605-3.723v13l-6 1c-1.675-1.675-1.347-3.807-1.535-6.11l-.264-3.21-.264-3.43-.27-3.443c-.573-7.623-.94-15.162-.667-22.807z" fill="#fcfaf8"/><path d="M250 713l6 2 1 18 7-13 6 2c-.817 6.782-3.817 12.341-6.837 18.36a519.164 519.164 0 0 0-2.884 5.892c-.619 1.246-1.24 2.492-1.861 3.736l-1.695 3.423C255 756 255 756 252.973 757.001 251 757 251 757 248 755c-.432-1.88-.432-1.88-.512-4.133l-.107-2.441-.068-2.551-.104-2.574c-.083-2.1-.147-4.2-.209-6.301l-7 13-6-2c.564-4.782 1.955-8.39 4.125-12.676l.93-1.85a742.99 742.99 0 0 1 1.947-3.835c1.002-1.96 1.993-3.925 2.982-5.891C248.82 714.18 248.82 714.18 250 713z" fill="#fcfbf9"/><path d="M709 579c6.008 2.216 11.367 5.576 16.858 8.822a915.515 915.515 0 0 0 5.7 3.324l3.614 2.131 3.315 1.945C741 597 741 597 742 600c-.863 2.203-.863 2.203-3 4-3.097.359-6.094.051-9.188-.25-.844-.066-1.69-.131-2.56-.2A430.573 430.573 0 0 1 721 603l13 8-2 6c-4.295-.594-7.342-2.129-11.07-4.309l-1.706-.99c-1.787-1.04-3.568-2.089-5.349-3.139l-3.613-2.103c-8.556-4.988-8.556-4.988-12.262-7.459 1.875-4.875 1.875-4.875 3-6a59.778 59.778 0 0 1 4.254.121l2.588.147 2.72.17 2.733.158c2.235.13 4.47.266 6.705.404l-14-8c1-4 1-4 3-7z" fill="#fdfbfa"/><path d="M167 649c3.44 1.72 5.101 2.852 7.688 5.5l1.824 1.844c2.113 2.351 2.479 3.591 2.925 6.781-.585 5.189-2.904 8.136-6.437 11.875-3 2-3 2-5.45 2.215-2.867.593-2.867.593-4.57 3.726a138.03 138.03 0 0 0-1.792 3.621l-.944 1.866A297.853 297.853 0 0 0 158 691l-6-3c.452-3.075 1.137-5.268 2.563-8.063 1.73-2.99 1.73-2.99 1.437-6.937-3.817 1.555-6.192 4.036-9 7-3.161-1.37-3.993-1.99-6-5z" fill="#fdfcfa"/><path d="M584.914 707.083c3.167 1.392 3.895 3.564 5.469 6.597.61 1.156 1.22 2.312 1.847 3.504l1.895 3.691a1969.2 1969.2 0 0 0 1.918 3.668c1.176 2.245 2.346 4.493 3.508 6.746C601 734.104 601 734.104 603 737v4c-3 2-3 2-4.836 1.875-2.963-1.198-5.241-2.952-7.789-4.875-3.544-2.732-3.544-2.732-7.375-5l1.531 2.773 1.969 3.602 1.012 1.828C590 745.773 590 745.773 590 748c-2.647 1.46-3.894 2-7 2l-1.238-2.307c-1.525-2.843-3.051-5.685-4.579-8.527l-1.975-3.68c-.95-1.771-1.901-3.54-2.853-5.31l-1.73-3.222a104.98 104.98 0 0 0-3.37-5.7C566 719 566 719 566.562 716.75c1.773-2.158 2.694-2.432 5.438-2.75 1.74.896 1.74.896 3.453 2.309l1.875 1.513 1.922 1.616 1.969 1.603A538.64 538.64 0 0 1 586 725c-1.193-3.58-3.052-6.454-5.04-9.648-1.187-2.907-.961-4.41.04-7.352 2-1 2-1 3.914-.917z" fill="#fdfbf9"/><path d="M956 874c4.431 2.136 7.229 4.376 9 9 .659 5.318.65 9.599-1.625 14.5-3.679 3.873-7.05 5.631-12.375 5.875-5.256-.23-8.732-2.004-12.313-5.875-2.885-4.275-3.353-8.456-2.687-13.5 1.31-3.595 3.262-6.307 6.063-8.938 4.637-1.677 9.07-1.705 13.937-1.062zM410 874c4.431 2.136 7.229 4.376 9 9 .659 5.318.65 9.599-1.625 14.5-3.679 3.873-7.05 5.631-12.375 5.875-5.256-.23-8.732-2.004-12.313-5.875-2.885-4.275-3.353-8.456-2.687-13.5 1.31-3.595 3.262-6.307 6.063-8.938 4.637-1.677 9.07-1.705 13.937-1.062zM274 874c4.431 2.136 7.229 4.376 9 9 .659 5.318.65 9.599-1.625 14.5-3.679 3.873-7.05 5.631-12.375 5.875-5.256-.23-8.732-2.004-12.313-5.875-2.885-4.275-3.353-8.456-2.687-13.5 1.31-3.595 3.262-6.307 6.063-8.938 4.637-1.677 9.07-1.705 13.937-1.062z" fill="#011548"/><path d="M648 114c5.579 3.158 5.579 3.158 7 6 .55 6.386-.32 10.704-4 16-4.254 4.934-8.207 9.423-14.875 10.438-4.393-.616-5.97-2.357-9.125-5.438-1.907-3.814-1.027-7.985 0-12 4.43-7.762 11.485-15.915 21-15z" fill="#fdfbf9"/><path d="M636 676c2.288 1.137 3.986 2.389 6 4-.573 2.867-.861 3.861-3 6-1.813-.313-1.813-.313-4-1-1.665-.34-3.332-.676-5-1-.878 2.204-.878 2.204-1 5 1.543 3.025 1.543 3.025 4 6l1.395 1.902c2.563 3.308 3.845 4.887 7.98 6.035L645 703v-8l-3 2h-3c-2-3-2-3-2-4.875 1.591-3.38 3.964-5.041 7-7.125 3.171.052 4.064 1.066 6.29 3.363l2.335 2.95 2.352 2.925c1.632 2.229 2.912 4.248 4.023 6.762l-4 2-1-1-1.25 2.813c-2.54 4.625-2.54 4.625-5.75 6.187-4.861.549-8.318.64-12.36-2.469-13.904-12.978-13.904-12.978-14.265-22.031.138-3.7.961-5.49 3.625-8.063 4.174-3.026 6.943-3.24 12-2.437z" fill="#fdfcfa"/><path d="M654.188 654c1.812 1 1.812 1 3.812 5l-9 9 4 5c2.604-1.116 4.061-2.067 6-4.188l2-1.812c3.018.178 3.837.837 6 3 0 1.813 0 1.813-1 4-1.898 1.846-3.89 3.384-6 5l2 4c4.582 0 5.055-.518 8.25-3.5l2.14-1.969L674 676c1.938.75 1.938.75 4 2 .814 1.862.814 1.862 1 4-1.172 1.74-1.172 1.74-2.965 3.453l-1.924 1.875-2.048 1.922-2.038 1.969A517.804 517.804 0 0 1 665 696c-6.774-3.251-11.279-9.241-16.086-14.883-2.904-3.212-6.095-6.118-9.289-9.039C638 670 638 670 638.015 667.984c2.027-4.084 5.681-6.924 8.985-9.984l2.75-2.563C652 654 652 654 654.188 654z" fill="#fcfaf7"/><path d="M321 741c7.193 1.162 14.07 2.745 21 5v6c-4.105 1.133-6.76.783-10.813-.438l-2.957-.87L326 750v8l10 3-1 7c-4.38-.52-8.688-1.057-13-2l-1 7 3.625.375c3.651.448 6.92 1.33 10.375 2.625l-1 7c-7.156-.702-14.019-2.308-21-4-1.519-3.924-.436-7.232.625-11.125l.544-2.082c.597-2.268 1.212-4.53 1.831-6.793l.685-2.507c1.417-5.17 2.858-10.334 4.315-15.493z" fill="#fcf9f6"/><path d="M603.27 695.027c3.88 1.382 6.397 3.794 9.417 6.536 1.239 1.093 2.479 2.186 3.72 3.277l1.84 1.628c4.7 4.106 9.558 8.069 14.753 11.532v3c-3 2-3 2-5.438 1.688C625 722 625 722 623 721.25c-2.163-.418-2.163-.418-4.75.688-2.434 1.768-2.434 1.768-2.426 3.94.076 1.415.16 2.83.254 4.243C616 732 616 732 614.188 734.063 612 735 612 735 609 734c-.92-1.835-.92-1.835-1.684-4.234l-.867-2.663-.887-2.853-.924-2.88A1416.02 1416.02 0 0 1 602 713a2440.6 2440.6 0 0 0-1.344-4.18C598 700.453 598 700.453 598 697c3-2 3-2 5.27-1.973z" fill="#fdfbf8"/><path d="M233.75 702.313L236 703c1.002 3.133.962 5.137.145 8.309l-.632 2.496-.7 2.633-.697 2.694c-4.735 18.106-4.735 18.106-7.116 22.868-4.875-.875-4.875-.875-6-2l.313-3.813c.112-2.159.112-2.159-.313-4.187-3.524-3.14-3.524-3.14-8-4l-1.313 1.563L210 731c-2.675-.261-4.601-.8-7-2 1.3-2.896 2.635-4.852 4.977-6.988l1.772-1.632 1.876-1.692 1.912-1.748c9.405-8.575 9.405-8.575 13.463-11.94l2.04-1.7c1.96-1.3 1.96-1.3 4.71-.987z" fill="#fcfbf8"/><path d="M550.988 724.598c2.446 1.705 4.23 3.598 6.2 5.84l2.37 2.699a553.937 553.937 0 0 1 9.422 11.375 257.575 257.575 0 0 0 5.082 6.05C576 753 576 753 576 755c-2.198 1.335-3.526 2.028-6.125 1.875C568 756 568 756 566 752l-10 3 1 8c-2.647 1.46-3.894 2-7 2-2.05-12.973-3.743-25.926-5-39 3.394-2.182 3.394-2.182 5.988-1.402z" fill="#fdfbf9"/><path d="M134 606c3.916 4.243 7.455 8.822 7.688 14.75-.387 4.287-1.772 7.027-4.688 10.25-4.023 2.624-7.223 3.877-12 3-2.558-1.783-4.791-3.804-7-6-3.995 1.37-6.8 3.257-10 6-1.938-.75-1.938-.75-4-2-.629-2.078-.629-2.078-1-4 7.08-5.982 14.356-11.509 21.934-16.836a133.992 133.992 0 0 0 5.351-3.953C132 606 132 606 134 606z" fill="#fcfbf8"/><path d="M694 602c4.706 1.448 4.706 1.448 5.996 3.871.005 2.929-1.058 3.984-2.933 6.192-2.67 3.006-2.67 3.006-3.063 6.937 2.681 2.232 2.681 2.232 5.016 1.848 2.464-1.053 3.277-2.185 4.734-4.41l1.297-1.942L706 613l6 3c-.98 2.714-1.85 4.816-3.688 7.063-1.534 1.841-1.534 1.841-1.187 4.062.842 2.228.842 2.228 3.875 3.875a363302464.822 363302464.822 0 0 0 5.371-6.836c1.651-2.058 1.651-2.058 2.629-4.164 2.438.75 2.438.75 5 2 .782 1.865.782 1.865 1 4a69.223 69.223 0 0 1-4.688 7.188l-1.357 1.943c-3.333 4.595-3.333 4.595-5.87 5.714-2.832.21-3.813-.648-6.062-2.345-.749-.555-1.498-1.11-2.27-1.68l-2.378-1.82a9967.976 9967.976 0 0 0-4.844-3.605c-.777-.585-1.554-1.17-2.355-1.771-2.73-2.037-5.503-3.995-8.301-5.937l-2.32-1.613L683 621c.46-5.124 3.079-8.328 6.063-12.313l1.431-1.955A742.538 742.538 0 0 1 694 602zM372 751c2.063.088 4.126.196 6.188.313l3.48.175c3.532.543 5.484 1.391 8.332 3.512 2.896 4.393 3.559 7.785 3 13-1.271 3.48-2.376 5.465-5.188 7.875-3.806 1.522-6.729 1.333-10.812 1.125l-1 12h-7c.263-4.126.53-8.252.8-12.378l.27-4.201c.914-14.32.914-14.32 1.93-21.421zM248.923 69.085c3.15 1.388 3.805 3.515 5.311 6.56l1.739 3.49.883 1.83c.89 1.838 1.802 3.664 2.718 5.49C264 95.452 264 95.452 264 100c-2.633.777-2.633.777-6 1-2.992-1.871-2.992-1.871-5.875-4.437l-2.93-2.56L247 92c1.08 3.242 2.559 6.054 4.16 9.063C252 103 252 103 252 106l-6 1c-1.585-3-3.168-6-4.75-9l-1.344-2.543c-1.308-2.482-2.608-4.97-3.906-7.457l-1.22-2.305C232 80.343 232 80.343 232 77c3-2 3-2 4.898-1.875 2.776 1.156 4.537 2.824 6.727 4.875 2.955 2.835 2.955 2.835 6.375 5l-1.348-2.52-1.714-3.292-1.723-3.27C244 73 244 73 245 70c2-1 2-1 3.923-.915z" fill="#fcfaf8"/><path d="M300 50l.55 1.941c1.514 5.206 3.302 10.076 5.45 15.059 4 11.101 4 11.101 4 15-3 1-3 1-7 1-3.07-2.32-5.5-5.087-8-8l-2-2 .91 2.047 1.152 2.703 1.16 2.672c.824 2.73.755 3.947-.222 6.578l-5 1c-3.136-7.076-5.875-14.24-8.375-21.563l-.833-2.38c-1.91-5.702-1.91-5.702-.792-9.057 2.664-.344 2.664-.344 6 0 2.091 1.814 3.658 3.389 5.375 5.5l1.363 1.59A261.731 261.731 0 0 1 297 66l-.621-1.793C295 60.163 293.682 56.231 293 52c3-2 3-2 7-2z" fill="#fcf9f6"/><path d="M177 119c4.362 2.31 6.92 4.511 9 9l.258 2.453c.53 2.739.53 2.739 3.027 4.348l2.778 1.512 2.785 1.55L197 139l-1 4c-2.063.75-2.063.75-5 1-1.785-.86-1.785-.86-3.625-2L184 140l-3 1 6 7c-2 4-2 4-4.125 4.75L181 153l-1.582-1.95c-6.05-7.427-12.212-14.753-18.418-22.05 2.673-6.274 8.962-11.53 16-10z" fill="#fcfbf8"/><path d="M404 32h6c.95 11.354 1.11 22.61 1 34h-6l-7-13-1 14h-6c-.684-11.35-1.153-22.628-1-34h6l7 14 1-15z" fill="#fdfcfa"/><path d="M736 58c20 0 20 0 26 4 2.976 4.464 2.74 8.767 2 14-1.986 4.02-5 6.145-9 8l2.188 2.957L760 90.813l1.445 1.947 1.367 1.885c.42.57.838 1.141 1.27 1.73C765 98 765 98 765 101c-2.664.527-2.664.527-6 0-2.833-3.198-4.67-7.123-6.68-10.87l-1.343-2.314-1.154-2.142C747.42 83.142 747.42 83.142 740 83v18h-4V58zm4 4v17l6.688.25 3.761.14c4.147-.456 5.73-1.358 8.551-4.39.863-2.744.637-5.207 0-8-1.87-2.431-3.281-3.64-6-5-4.336-.14-8.66-.043-13 0z"/><path d="M345 747c3.25-.063 3.25-.063 7 1 1.85 2.827 2.958 5.797 4 9l5-7 7 1c-.593 4.024-2.722 6.485-5.125 9.688-3.507 4.98-3.507 4.98-4.063 10.812A74.053 74.053 0 0 0 360 776l.766 3.223c.7 2.939 1.449 5.86 2.234 8.777h-8c-1.292-4.12-2.263-7.668-2-12h-2l-.813 2.75c-1.083 2.965-2.17 4.867-4.187 7.25l-7-1c.588-4.011 2.703-6.393 5.125-9.563 3.666-5.367 4.659-8.592 3.512-14.96-.819-3.185-1.674-6.332-2.637-9.477v-4z" fill="#fcfaf7"/><path d="M328 42c3.507 2.316 5.61 3.744 6.875 7.813L335 52l-5 2-3-4-5 1c.433 6.82 1.908 11.916 5 18l4-1 1-5-5 1-1-6a210.497 210.497 0 0 1 3.75-1.563l2.11-.878c2.44-.637 3.78-.361 6.14.441.505 2.249 1.004 4.5 1.5 6.75l.844 3.797C341 70 341 70 341 74l-2.188-.188c-2.888-.026-2.888-.026-5.25 1.688-3.192 1.869-4.915 2.032-8.562 1.5-5.284-2.894-7.134-7.523-9-13-.75-3.5-.75-3.5-1-7l-.191-2.258c-.21-4.08-.156-6.168 2.003-9.742 3.47-3.172 6.621-3.537 11.188-3zM535 53l6 2c-.59 4.47-1.769 8.219-3.5 12.375-1.986 4.997-3.185 9.272-3.5 14.625 2.447-.168 2.447-.168 5-1 1.304-1.84 1.304-1.84 2-4.25l.953-2.695L543 71c.91-2.378 1.826-4.753 2.75-7.125L548 58l6 1c-.955 10.504-4.623 20.565-11.41 28.688-2.335 1.927-4.655 1.778-7.586 1.675-3.117-.565-4.84-2.134-7.004-4.363-2.178-4.357-1.505-9.975-.356-14.583.857-2.529 1.796-5.002 2.793-7.48l.987-2.583c2.38-6.157 2.38-6.157 3.576-7.354z" fill="#fcf9f6"/><path d="M594 80c4.418.763 7.46 2.234 11.313 4.563l3.238 1.94L611 88l-1 5c-2.73 1.065-3.793 1.08-6.578.004l-2.672-1.442-2.703-1.433L596 89l-1 6 8 5-2 5c-4.389-.665-7.981-2.188-12-4l-1 5 9 6-1 5c-4.723 0-7.342-1.649-11.25-4l-1.969-1.156c-1.598-.94-3.19-1.891-4.781-2.844 1.421-3.821 3.192-7.226 5.258-10.738l1.894-3.233 1.973-3.341 1.996-3.4c1.623-2.765 3.25-5.527 4.879-8.288z" fill="#fcfbf8"/><path d="M195 100c4.957.437 7.986 3.003 11.688 6.063l1.846 1.489c1.236.998 2.469 2 3.699 3.006 2.53 2.065 5.087 4.096 7.642 6.13 1.376 1.103 2.75 2.207 4.125 3.312l-2 4c-3.767 0-4.912-.235-8-2l-1.875 1.5C210 125 210 125 208 125l1 8-5 2a389.024 389.024 0 0 1-7.875-20.875l-1.008-2.797-.922-2.695-.843-2.41c-.434-2.738.198-3.915 1.648-6.223z" fill="#fdfbf9"/><path d="M434.066 31.516c3.436.86 4.92 2.677 6.934 5.484.812 3.313.812 3.313 1 6l-6 1-2-4h-4c.509 4.053 2.437 5.575 5.5 8.125 4.413 3.7 4.413 3.7 5.5 5.875.122 4.53-.182 7.983-3.063 11.563-3.8 1.86-6.788 2.401-10.937 1.437-3.488-2.523-4.755-4.089-5.875-8.25L421 56c1-1 1-1 4.062-1.063L428 55l1 4 5 1c-1.104-5.658-3.918-8.028-8.223-11.484-2.81-2.397-2.778-3.528-3.152-7.328.062-3.39.386-4.205 2.375-7.188 3.332-2.221 5.141-2.752 9.066-2.484z" fill="#fbf9f5"/><path d="M476 748v7l-7 1 .367 1.73c4.018 19.442 4.018 19.442 3.633 29.27h-7c-2.383-9.87-4.181-19.82-4-30l-8 1c-1.354-2.709-1.065-5.01-1-8 7.73-1.357 15.145-2.32 23-2z" fill="#fcfaf8"/><path d="M721 554c2.938.813 2.938.813 6 2 1 3 1 3-1 8l26 13-1 6c-3.821 1.274-4.64.503-8.184-1.238l-3.06-1.487-3.194-1.587c-1.574-.77-1.574-.77-3.181-1.553A1438.29 1438.29 0 0 1 721 571l-2 6-6-1c-1.205-3.616-.749-4.143.871-7.45l1.24-2.568 1.327-2.67 1.314-2.705A942.382 942.382 0 0 1 721 554zM185 668c4.557.539 7.378 3.448 10.75 6.313l1.824 1.474c1.723 1.451 1.723 1.451 4.426 4.213 0 4 0 4-2 7l-1.75-.938c-2.099-.99-4-1.537-6.25-2.062l-1.652 2.02L174 706c-2.622-1.049-3.794-1.65-5.25-4.125L168 700l1.652-1.8c5.673-6.236 11.066-12.632 16.348-19.2-1.309-3.122-1.309-3.122-4-5 .573-2.867.861-3.861 3-6z" fill="#fcfbf8"/><path d="M667 132c4.075.521 5.867 2.585 8.625 5.5 2.878 3.167 2.878 3.167 6.375 5.5-.25 1.875-.25 1.875-1 4l-4 2-7-7-4 2c-.016 4.296-.016 4.296 2.5 7.25L671 154c-1.25 1.563-1.25 1.563-3 3-3.004-.097-4.02-1.018-6.25-3.063L660 152c-4.274 1.583-6.265 4.506-9 8-3.737-1.447-3.737-1.447-4.862-3.816C646 154 646 154 647.49 151.957l2.243-2.144 2.43-2.368L654.75 145a2691.5 2691.5 0 0 0 4.984-4.813l2.257-2.144c1.88-1.911 3.46-3.86 5.009-6.043z" fill="#fdfbf9"/><path d="M503 44c7.031.434 13.329 1.743 20 4 .188 2.375.188 2.375 0 5-3 2-3 2-5.688 1.625L515 54l-.55 2.457C512.806 63.692 511.016 70.861 509 78c-4.75 1.125-4.75 1.125-7 0 .562-6.458 1.737-12.35 3.563-18.563l.708-2.478c.57-1.988 1.149-3.974 1.729-5.959l-6-1 1-6z" fill="#fbf9f5"/><path d="M151.23 137.988C153 139 153 139 155 142l-3 4c1.393 3.152 3.025 5.262 5.477 7.672l2.03 2.012 2.118 2.066 2.14 2.113c1.741 1.717 3.486 3.43 5.235 5.137l-2 4c-4 0-4 0-5.923-1.469l-1.968-2.031-2.148-2.188L154.75 161l-2.258-2.313A838.793 838.793 0 0 1 147 153l-1.75 1c-2.25 1-2.25 1-6.25 1l-2-2c.105-4.32 3.438-6.953 6.313-9.813l1.474-1.56c3.604-3.624 3.604-3.624 6.443-3.639z" fill="#fdfbf9"/><path d="M454 35c6.95-.266 13.235.388 20 2v6h-8l.059 3.445c-.001 4.528-.441 8.94-.997 13.43l-.263 2.297C464.13 67.74 464.13 67.74 463 70l-6-1c.436-9.143 1.042-18.029 3-27l-6-1v-6z" fill="#fcf9f6"/><path d="M566 65c4.36 1.348 8.313 3.05 12.375 5.125l3.21 1.633L584 73l-2 6-7-1-.854 1.912c-1.284 2.849-2.59 5.687-3.896 8.525l-1.344 3.01-1.328 2.862-1.206 2.65C565 99 565 99 563.026 99.856 561 100 561 100 558 99a42.776 42.776 0 0 1 2.559-7.785l.92-2.108.959-2.17.947-2.181c1.38-3.141 2.7-5.885 4.615-8.756v-3l-4-2c.875-4.875.875-4.875 2-6z" fill="#fcfaf8"/><path d="M108 562l1 6c-4.334 2.17-8.676 4.324-13.025 6.464-1.478.73-2.955 1.464-4.429 2.203a826.238 826.238 0 0 1-6.374 3.15l-1.992 1.01c-4.63 2.24-4.63 2.24-7.628 1.872L74 582l-1-5c5.521-2.924 11.05-5.833 16.584-8.73a772.583 772.583 0 0 0 6.209-3.305l3.144-1.653 2.715-1.449c2.627-.965 3.772-.85 6.348.137z" fill="#fdfbf9"/><path d="M774 420c-1.446 4.26-3.573 7.25-6.375 10.75-6.201 7.853-11.905 16.043-17.625 24.25-2.622-7.865 3.396-19.792 6.446-27.162 1.885-3.443 3.5-5.027 7.099-6.518 3.503-.94 6.84-1.32 10.455-1.32z" fill="#eff0f3"/><path d="M818 407l-1.45 1.022-6.612 4.666-2.28 1.607-2.256 1.592-2.246 1.575a165.37 165.37 0 0 0-4.14 3.048c-4.619 3.49-4.619 3.49-8.891 3.49-4.492-.907-8.83-2.42-13.125-4 1-2 1-2 4.462-3.344 1.539-.513 3.08-1.016 4.624-1.511l2.463-.806c1.722-.561 3.445-1.118 5.17-1.672 2.642-.85 5.278-1.718 7.914-2.587 1.671-.542 3.343-1.083 5.015-1.623l2.397-.792c5.61-1.78 5.61-1.78 8.955-.665z" fill="#f2f3f5"/><path d="M222 86c1.718 2.345 1.718 2.345 3.574 5.426l2.022 3.353 1.039 1.758a522.96 522.96 0 0 0 3.18 5.274l2.01 3.365 1.846 3.09C237 111 237 111 237 115l-5 2-1.941-3.113-1.26-2.02c-.911-1.458-1.821-2.918-2.73-4.377-2.07-3.318-4.145-6.628-6.292-9.896-.627-.96-1.255-1.918-1.902-2.906l-1.695-2.551C215 90 215 90 215 87c3.625-2.125 3.625-2.125 7-1z" fill="#fbf9f5"/><path d="M776 421c3.75 3.558 6.81 7.305 9.75 11.563 4.073 5.817 8.291 11.49 12.633 17.109C800 452 800 452 800 454c-2.872-1.36-5.418-2.906-8.004-4.75l-2.244-1.594-2.314-1.656-4.567-3.25-2.033-1.453A220.466 220.466 0 0 0 776 438c-.22-2.95-.28-5.684-.188-8.625l.042-2.43c.035-1.982.089-3.963.146-5.945z" fill="#f5f5f7"/><path d="M373.5 33.875C376 34 376 34 377 35c.3 1.924.54 3.858.754 5.793l.4 3.6.409 3.795.42 3.736c1.209 11.04 1.209 11.04 1.017 16.076-1 1-1 1-3.5 1.125C374 69 374 69 373 68c-.315-2.43-.572-4.842-.79-7.281l-.204-2.208c-.141-1.544-.28-3.087-.418-4.63-.212-2.372-.435-4.742-.658-7.111l-.407-4.489-.205-2.162A129.215 129.215 0 0 1 370 35c1-1 1-1 3.5-1.125z" fill="#fbf7f3"/><path d="M734 405c4.25-.3 8.493-.516 12.75-.66 1.443-.06 2.886-.14 4.326-.245 11.678-.826 11.678-.826 15.502 2.122 3.068 3.226 5.307 6.869 7.422 10.783-4.233 1.411-7.32-.156-11.387-1.527l-2.476-.812a1697.55 1697.55 0 0 1-7.825-2.598c-1.768-.584-3.537-1.167-5.306-1.749A3510.215 3510.215 0 0 1 734 406v-1z" fill="#f7f7f9"/><path d="M776 376c2.965 4.448 4.42 9.352 6.188 14.375l1.154 3.156 1.076 3.055.993 2.783c.964 4.307.087 6.836-2.223 10.526L781 412.813l-2.188 2.957L777 418h-1v-42z" fill="#f6f7f9"/><path d="M50 421l-1.035 1.43A5153.507 5153.507 0 0 0 27 453c-1.746-5.239.768-10.289 2.313-15.438l.916-3.47c2.486-8.22 2.486-8.22 6.19-10.733 2.52-1.015 4.936-1.753 7.581-2.359 3-1 3-1 6 0z" fill="#f0f1f4"/><path d="M10 405c4.25-.3 8.493-.516 12.75-.66 1.443-.06 2.886-.14 4.326-.245 11.678-.826 11.678-.826 15.502 2.122 3.068 3.226 5.307 6.869 7.422 10.783-4.233 1.411-7.32-.156-11.387-1.527l-2.476-.812a1697.55 1697.55 0 0 1-7.825-2.598c-1.768-.584-3.537-1.167-5.306-1.749A3510.215 3510.215 0 0 1 10 406v-1z" fill="#edeff2"/><path d="M269 62c1.458 2.636 1.458 2.636 2.953 6.117l.802 1.858a525.313 525.313 0 0 1 1.653 3.899 530.041 530.041 0 0 0 2.56 5.958c.539 1.261 1.075 2.523 1.61 3.785l1.482 3.488C281 90 281 90 280 93l-5 1c-3.085-6.583-5.998-13.236-8.813-19.938l-.95-2.222C263.76 68.29 263 65.898 263 62c3-1 3-1 6 0z" fill="#fcf9f6"/><path d="M486 39l6 1c-1.151 11.257-3.205 22.037-6 33h-6c.515-7.92 1.792-15.457 3.563-23.188l.708-3.173c.57-2.548 1.147-5.094 1.729-7.639z" fill="#fdfbf9"/><path d="M92 407c-2.52 1.897-5.041 3.793-7.563 5.688l-2.134 1.607a802.902 802.902 0 0 1-4.243 3.165 175.698 175.698 0 0 0-3.989 3.07c-4.456 3.44-4.456 3.44-7.512 3.591l-2.121-.684-2.282-.683L60 422l-3.563-1.125L54 420v-2a4359.016 4359.016 0 0 1 15.271-5.182c1.733-.586 3.466-1.175 5.197-1.766 2.485-.849 4.973-1.688 7.462-2.525l2.355-.81c5.487-1.83 5.487-1.83 7.715-.717z" fill="#f2f3f5"/><path d="M52 421c4.133 3.75 7.165 8.223 10.375 12.75 1.111 1.558 2.223 3.115 3.336 4.672l1.64 2.295C69.853 444.18 72.42 447.594 75 451l-1 2-2.781-1.977-1.793-1.272a432.138 432.138 0 0 1-3.856-2.788c-2.711-1.976-5.311-3.826-8.28-5.4-2.478-1.36-3.775-2.158-5.29-4.563-.659-5.42-.464-10.572 0-16zM52 379c3.327 3.327 4.21 7.852 5.688 12.25l1.01 2.855c3.03 8.983 3.03 8.983 1.302 13.895-1.594 2.555-1.594 2.555-3.5 4.875l-1.906 2.367L53 417h-1v-38z" fill="#f5f6f8"/><path d="M147.938 639.188L150 640c.695 1.75.695 1.75 1 4-2.892 4.598-7.414 9.134-12 12-3.813.75-3.813.75-7 1-.688-2.25-.688-2.25-1-5 3.134-5.444 10.35-13.233 16.938-12.813z" fill="#be873f"/><path d="M407 761c4.875.875 4.875.875 6 2 .25 3.117.185 6.249.188 9.375l.037 2.656.005 2.555.013 2.345C413 782 413 782 411 785c-2.438-.375-2.438-.375-5-1-1.626-3.253-1.185-6.805-1.188-10.375l-.037-2.328c-.018-6.982-.018-6.982 2.225-10.297z" fill="#bd853c"/><path d="M279 735c4.875.875 4.875.875 6 2-.221 6.964-1.846 14.846-7 20-2 .04-4 .043-6 0 .559-5.437 1.94-9.918 4.063-14.938l.853-2.072A768.223 768.223 0 0 1 279 735z" fill="#bf8841"/><path d="M645.797 121.219L648 122c.148 6.789-3.23 10.194-7.578 15.156C638 139 638 139 635.203 138.781L633 138c-.148-6.789 3.23-10.194 7.578-15.156C643 121 643 121 645.797 121.219z" fill="#be873f"/><path d="M323 49c2.5.188 2.5.188 5 1l2 3c2.06.724 2.06.724 4 1v2l-8 2 1 6 5-1c.125 2.375.125 2.375 0 5l-2 2c-1.988-.125-1.988-.125-4-1-3.514-4.997-5.387-11.9-5-18z" fill="#c08a45"/><path d="M51 376c2.578 3.867 2.235 7.025 2.16 11.5l-.016 2.521c-.017 2.66-.049 5.32-.081 7.979a2417.4 2417.4 0 0 0-.072 7.979 732.26 732.26 0 0 1-.053 4.964c-.029 3.29.013 5.911 1.062 9.057h-2v17h-1v-17h-2v-2h2v-42z" fill="#5f6c8c"/><path d="M349 681c5.21.548 10.068 1.188 15 3l1 3c-5.789.207-10.43-.408-16-2v-4z" fill="#ecedf1"/><path d="M167 659l3 1c1.323 5.411 1.323 5.411-.063 7.938-2.848 1.562-4.872.811-7.937.062 0-4 0-4 2.5-6.75z" fill="#bf8841"/><path d="M136 411l3 1v16l-3 1c-1.178-3.534-1.133-6.403-1.125-10.125l-.008-3.82C135 412 135 412 136 411z" fill="#eeeff3"/><path d="M205 227c-.617 3.597-2.097 5.818-4.313 8.688l-1.8 2.386c-2.007 2.049-3.088 2.561-5.887 2.926.547-4.105 1.785-6.55 4.313-9.813l1.8-2.394C201 227 201 227 205 227z" fill="#eef0f3"/><path d="M379 759c4.706.706 4.706.706 6 2 .125 3.5.125 3.5 0 7-1 1-1 1-4.063 1.063L378 769c-.027-1.48-.046-2.958-.063-4.438l-.035-2.496C378 760 378 760 379 759z" fill="#c18b46"/><path d="M451 688v3c-5.666 1.225-11.237 1.092-17 1v-3c1.894-.365 3.79-.717 5.688-1.063l3.199-.597c3.025-.33 5.193-.115 8.113.66z" fill="#e9ebef"/><path d="M620 595l4 1v3a173.788 173.788 0 0 1-5 4l-2.063 2.75L615 608h-4c.57-3.594 1.864-5.172 4.5-7.625 2.618-2.411 2.618-2.411 4.5-5.375z" fill="#eeeff3"/><path d="M667 523l3 1c-.724 3.494-2.063 6.52-3.563 9.75l-1.378 2.984L664 539h-3c.403-6.316 2.712-10.65 6-16z" fill="#e9eaef"/><path d="M142 354h2c-.779 12.67-.779 12.67-3 18l-3-1c1.056-14.056 1.056-14.056 4-17z" fill="#dfe2e8"/><path d="M639 250h3c1.824 2.3 1.824 2.3 3.688 5.313l1.886 2.988C649 261 649 261 649 264h-4c-1.957-2.3-1.957-2.3-3.813-5.313l-1.894-2.988C638 253 638 253 639 250z" fill="#eceef1"/><path d="M435 760c5.875.875 5.875.875 7 2 .188 2.938.188 2.938 0 6l-2 2h-5v-10z" fill="#be873f"/><path d="M578 634h4c-1.315 4.151-2.722 5.964-6.375 8.313l-2.336 1.55C571 645 571 645 567 645c.347-2.856.767-3.808 3.031-5.668l2.469-1.52 2.469-1.542L577 635z" fill="#ecedf1"/><path d="M684 353l3 1c.984 2.547.984 2.547 1.75 5.75l.797 3.172c.45 3.06.264 5.12-.547 8.078l-3-1c-.338-1.895-.67-3.791-1-5.688l-.563-3.199A46.79 46.79 0 0 1 684 353z" fill="#e4e6eb"/><path d="M580 188c4.73 1.434 8.84 4.194 12 8v4c-3.705-.603-5.86-2.225-8.75-4.563l-2.422-1.94L579 192z" fill="#eff0f3"/><path d="M556 172c4.665 1.603 9.12 3.944 13 7l1 3c-1.64.715-1.64.715-4 1-2.797-1.434-2.797-1.434-5.75-3.438l-2.984-1.996L555 176zM269.36 172.297L271 173c-1.3 3.898-2.947 4.572-6.375 6.75l-2.96 1.922C259 183 259 183 256 182v-3c2.266-1.86 2.266-1.86 5.25-3.75l2.953-1.922C267 172 267 172 269.36 172.297z" fill="#e9ebef"/><path d="M245 635c3.57.659 6.177 2.162 9.25 4.063l2.703 1.66L259 642l-1 4c-3.3-1.135-6.298-2.635-9.313-4.375-.697-.4-1.394-.8-2.113-1.21L245 639v-4z" fill="#ebedf1"/><path d="M379 136l-1 3c-5.38 1.19-10.453 2.292-16 2v-3c5.784-2.012 10.902-2.22 17-2z" fill="#e5e7ec"/><path d="M223 617c3.603.62 5.862 2.109 8.75 4.313l2.422 1.8C236 625 236 625 236 629c-3.546-.598-5.501-1.959-8.188-4.313l-2.105-1.8c-1.815-2.006-2.316-3.246-2.707-5.887z" fill="#f1f2f5"/><path d="M131 616c2 2 2 2 2.313 5l-.313 3c-3 2-3 2-5.563 1.813C125 625 125 625 123 622l8-6z" fill="#c08a44"/><path d="M602.258 616.305L604 617a2695.918 2695.918 0 0 1-3.312 3.813l-1.864 2.144L597 625l-1.48 1.762C594 628 594 628 590 628c1.193-4.92 4.325-7.466 7.93-10.742C600 616 600 616 602.258 616.305z" fill="#e5e7ec"/><path d="M638 573h3c-.328 5.24-3.381 9.373-7 13-2.2.734-2.2.734-4 1 .544-4.135 1.808-6.547 4.375-9.813l1.836-2.394L638 573z" fill="#edeef2"/><path d="M655 548l2 1c-.568 3.901-1.692 6.539-3.875 9.813l-1.555 2.394L650 563h-3c.583-3.694 1.6-6.499 3.438-9.75l1.308-2.36C653 549 653 549 655 548z" fill="#ebedf1"/><path d="M158 523c3 1 3 1 4.387 3.363l1.3 2.95 1.325 2.925C166 535 166 535 166 539c-3.824-1.458-5.032-3.249-6.813-6.875l-1.332-2.617c-.926-2.715-.856-3.869.145-6.508z" fill="#eeeff3"/><path d="M476 140c5.239.551 9.974 1.43 15 3v4c-5.258-.674-10.026-2.243-15-4v-3z" fill="#e7e9ee"/><path d="M690 410l3 1v17h-4z" fill="#f0f1f4"/><path d="M184 250h3c-.581 3.76-1.652 6.53-3.563 9.813l-1.378 2.394L181 264h-4c.568-3.901 1.692-6.539 3.875-9.813l1.555-2.394L184 250z" fill="#edeff2"/><path d="M351 141l-1 3c-2.582 1.203-2.582 1.203-5.813 2.25l-3.207 1.078c-2.884.65-4.262.699-6.98-.328 1-3 1-3 3.188-4.125 4.622-1.438 8.977-2.017 13.812-1.875z" fill="#e6e8ed"/><path d="M376 687c12.67-.369 12.67-.369 18 2v2c-12.67.369-12.67.369-18-2v-2z" fill="#e1e3e9"/><path d="M171 549c3.917 1.306 4.318 2.8 6.25 6.375l1.64 2.96C180 561 180 561 179 564h-3a594.74 594.74 0 0 1-3.063-5.813l-1.722-3.269C170 552 170 552 171 549z" fill="#eaecf0"/><path d="M654 274c1.828.2 1.828.2 4 1 1.484 2.145 1.484 2.145 2.75 4.813l1.297 2.644C663 285 663 285 663 289c-1.828-.164-1.828-.164-4-1-1.484-2.398-1.484-2.398-2.75-5.375l-1.297-2.96C654 277 654 277 654 274z" fill="#eeeff3"/><path d="M221 206l4 1c-2.429 4.715-5.837 8.717-10 12h-3c.57-3.594 1.864-5.172 4.5-7.625 2.618-2.411 2.618-2.411 4.5-5.375z" fill="#e8eaef"/><path d="M507 675c-2.428 3.642-3.85 3.922-7.938 5.25l-3.214 1.078C493 682 493 682 490 681c4.241-5.125 10.43-8.258 17-6z" fill="#edeff2"/><path d="M689 382l3 1 1 15h-4c-.194-2.479-.38-4.958-.563-7.438l-.17-2.142c-.129-1.804-.202-3.612-.267-5.42z" fill="#f2f3f6"/><path d="M529 159c5.853.45 10.082 3.038 15 6v3c-3.666-.585-6.505-1.578-9.75-3.375l-2.36-1.273C530 162 530 162 529 159zM558 651c-1.306 3.917-2.8 4.318-6.375 6.25l-2.96 1.64C546 660 546 660 543 659c1.306-3.917 2.8-4.318 6.375-6.25l2.96-1.64C555 650 555 650 558 651z" fill="#eceef1"/><path d="M185 574h4c1.922 2.3 1.922 2.3 3.75 5.313l1.86 2.988C196 585 196 585 196 588h-3c-2.043-2.3-2.043-2.3-4.188-5.313l-2.167-2.988C185 577 185 577 185 574z" fill="#ebecf0"/><path d="M296 160c-3.257 3.8-7.226 6.48-12 8-2.25-.395-2.25-.395-4-1 4.006-4.674 9.725-9.171 16-7z" fill="#eff0f3"/><path d="M323 150c-2.356 2.689-4.636 3.92-7.938 5.25l-2.59 1.078c-2.643.719-3.93.592-6.472-.328 4.014-5.06 10.692-8.107 17-6z" fill="#f0f1f4"/><path d="M406 689l16 1v3h-16v-4z" fill="#f2f3f6"/><path d="M479 683c-2 3-2 3-4.207 3.766l-2.606.484-2.582.516c-2.763.248-4.926-.093-7.605-.766 2.395-2.858 4.305-3.573 7.938-4.25l2.59-.516c2.467-.234 4.132.006 6.472.766z" fill="#f1f2f5"/><path d="M269 651c3.666.585 6.505 1.578 9.75 3.375l2.36 1.273C283 657 283 657 284 660c-5.853-.45-10.082-3.038-15-6v-3z" fill="#eff0f3"/><path d="M149 496c2.767 2.37 3.727 4.465 4.75 7.938l.797 2.59c.47 2.563.29 4.033-.547 6.472-2.767-2.37-3.727-4.465-4.75-7.938l-.797-2.59c-.47-2.563-.29-4.033.547-6.472z" fill="#ecedf1"/><path d="M141 468l3 1c.984 2.582.984 2.582 1.75 5.813l.797 3.207c.425 2.797.394 4.355-.547 6.98-3.706-2.695-4.298-6.717-5-11-.125-3.5-.125-3.5 0-6z" fill="#e4e6ec"/><path d="M294 664c5.774.481 9.959 2.185 15 5v3c-3.85-.604-6.861-1.768-10.313-3.563l-2.675-1.378L294 666v-2z" fill="#edeff2"/><path d="M678 496l2 1c-.4 1.754-.82 3.503-1.25 5.25l-.703 2.953c-1.165 3.112-2.56 4.64-5.047 6.797-1.325-3.63-.667-5.623.813-9.125l1.082-2.633C676 498 676 498 678 496zM149 327l2 1c-.452 1.918-.912 3.834-1.375 5.75l-.773 3.234c-.727 2.575-1.555 4.692-2.852 7.016h-2c.73-12.73.73-12.73 5-17z" fill="#eaecf0"/><path d="M158 300l2 1c-.4 1.754-.82 3.503-1.25 5.25l-.703 2.953c-1.165 3.112-2.56 4.64-5.047 6.797-1.325-3.63-.667-5.623.813-9.125l1.082-2.633C156 302 156 302 158 300z" fill="#edeff2"/><path d="M169 274h3c-.604 3.85-1.768 6.861-3.563 10.313l-1.378 2.675L166 289h-3c.604-3.85 1.768-6.861 3.563-10.313l1.378-2.675L169 274z" fill="#f1f3f5"/><path d="M601 207c3.796.564 5.587 2.183 8.25 4.875l2.14 2.117C613 216 613 216 613 219c-3.796-.564-5.587-2.183-8.25-4.875l-2.14-2.117C601 210 601 210 601 207z" fill="#ebecf0"/><path d="M203 596c4.528 2.329 6.867 5.105 10 9l2 1v3c-4.246-.491-6.054-1.573-8.813-4.813l-1.832-2.082C203 600 203 600 203 596z" fill="#ecedf1"/><path d="M685 468l2 1c-.551 5.239-1.43 9.974-3 15h-3a813.6 813.6 0 0 1 .875-6.313l.492-3.55C683 471 683 471 685 468z" fill="#eceef1"/><path d="M138 440l2 1c.476 2.54.84 5 1.125 7.563l.262 2.154c.212 1.76.414 3.521.613 5.283h-4c-.846-5.078-1.178-9.848-1-15z" fill="#f3f4f6"/><path d="M678 326c2.779 2.374 3.696 4.447 4.688 7.938l.761 2.59C684 339 684 339 684 343l-3-1c-2.235-4.987-3.556-9.56-4-15z" fill="#ebedf0"/><path d="M621 227h3c1.79 1.793 1.79 1.793 3.625 4.188l1.852 2.355c1.582 2.552 2.135 4.502 2.523 7.457-4.623-2.312-8.257-5.617-11-10v-4z" fill="#eeeff2"/><path d="M243 188h4c-1.468 3.587-3.384 5.404-6.438 7.75l-2.37 1.86C236 199 236 199 233 199v-3c1.934-1.79 1.934-1.79 4.438-3.625l2.496-1.852L242 189z" fill="#eff0f3"/><path d="M504 148c5.94 1.003 10.202 2.31 15 6l-1 2c-3.85-.604-6.861-1.768-10.313-3.563l-2.675-1.378L503 150z" fill="#edeff2"/><path d="M448 135c10.558-.369 10.558-.369 15 2v3l-15-2v-3z" fill="#eaebf0"/><path d="M172 126c4.75.75 4.75.75 7 3-.375 2.625-.375 2.625-1 5h-4c-2.25-2.5-2.25-2.5-4-5l2-3z" fill="#c08a44"/><path d="M401.813 132.938l2.957.027L407 133v3l-16 1v-3c3.674-.853 7.045-1.108 10.813-1.063z" fill="#ebedf1"/><path d="M418 133h17l1 3h-17l-1-3z" fill="#f0f1f4"/><path d="M322 674c5.446 1.029 10.118 2.246 15 5l-1 2c-5.774-.481-9.959-2.185-15-5z" fill="#eeeff2"/><path d="M689 440l3 1-2 15h-3c-.09-5.129.069-9.93 1-15z" fill="#f6f6f8"/><path d="M667 299c3.8 3.257 6.48 7.226 8 12-.395 2.25-.395 2.25-1 4-4.01-3.318-5.725-7.053-7-12v-4z" fill="#eeeff2"/><path d="M533 664c-3.42 4.164-7.89 6.466-13 8l-3-1c3.73-4.542 10.118-8.96 16-7z" fill="#eff0f3"/><path d="M137 383h3l-1 17h-3a1180.21 1180.21 0 0 1-.063-6.25l-.035-3.516c.08-2.644.312-4.732 1.098-7.234z" fill="#eff1f4"/><path d="M52 417l2 1v2h-2v17h-1v-17h-2v-2l3-1z" fill="#526082"/><path d="M609 709h2v2l4 2v3l-4 1-2-8z" fill="#c49251"/><path d="M225 717c.625 1.813.625 1.813 1 4l-2 3-4-1c1.37-3.161 1.99-3.993 5-6z" fill="#c59252"/><path d="M554 740l6 5-4 3c-2.152-3.228-2.2-4.284-2-8z" fill="#c38f4c"/><path d="M203 112l6 4-2 3h-2c-1.46-2.647-2-3.894-2-7z" fill="#c59353"/><path d="M514 763c2.526 2.363 3.888 3.665 5 7l-3 1c-1.257-2.906-2-4.796-2-8z" fill="#cb9f66"/></svg>